<?xml version="1.0" standalone="no"?>
<!DOCTYPE svg PUBLIC "-//W3C//DTD SVG 20010904//EN"
 "http://www.w3.org/TR/2001/REC-SVG-20010904/DTD/svg10.dtd">
<svg version="1.0" xmlns="http://www.w3.org/2000/svg"
 width="300.000000pt" height="105.000000pt" viewBox="0 0 300.000000 105.000000"
 preserveAspectRatio="xMidYMid meet">
<metadata>
Created by potrace 1.10, written by Peter Selinger 2001-2011
</metadata>
<g transform="translate(0.000000,105.000000) scale(0.100000,-0.100000)"
fill="#fff" stroke="none">
<path d="M551 802 c-45 -24 -71 -74 -71 -134 0 -36 6 -54 21 -69 l21 -21 -21
-43 c-17 -35 -21 -60 -21 -147 0 -98 2 -107 25 -132 23 -25 27 -26 145 -26
145 0 160 8 160 89 0 63 -22 81 -97 81 -40 0 -53 4 -53 15 0 10 10 15 28 15
15 0 48 10 72 22 38 19 46 28 48 56 2 17 7 32 13 32 5 0 9 25 9 55 0 59 1 60
68 39 9 -2 12 -44 12 -163 0 -159 9 -219 32 -205 7 4 8 3 4 -4 -8 -13 24 -32
56 -32 13 0 35 13 51 29 l27 29 0 171 0 171 24 6 c53 13 58 5 77 -101 9 -55
19 -107 22 -115 3 -8 11 -41 17 -73 15 -78 49 -117 100 -117 31 0 44 7 68 34
17 19 33 48 37 65 8 39 21 32 35 -19 14 -50 51 -80 101 -80 69 0 81 24 114
215 9 55 20 107 23 115 4 8 9 -51 12 -132 5 -138 6 -148 29 -172 47 -50 121
-26 138 43 l9 35 22 -36 c30 -49 100 -78 187 -78 77 0 111 15 153 66 l29 35 7
-25 c3 -14 13 -26 22 -26 8 0 13 -4 9 -9 -12 -20 36 -31 130 -31 127 0 164 20
165 88 0 53 -36 82 -105 82 -48 0 -55 2 -55 20 0 16 7 20 35 20 76 0 113 87
60 144 -17 19 -34 26 -60 26 -36 0 -47 13 -19 24 9 3 33 6 55 6 55 0 89 34 89
88 0 24 -8 49 -19 63 -18 22 -28 24 -129 27 -121 4 -143 -2 -171 -49 l-18 -29
-24 26 c-40 43 -72 54 -157 54 -92 0 -138 -16 -175 -60 -30 -35 -37 -37 -37
-10 0 33 -44 70 -83 70 -18 0 -38 -5 -45 -12 -9 -9 -21 -8 -51 2 -74 24 -119
-8 -129 -95 -6 -60 -19 -65 -33 -13 -17 63 -34 93 -64 106 -61 28 -106 -1
-130 -84 -18 -62 -29 -63 -39 -5 -3 22 -17 52 -30 68 l-24 29 -197 2 -196 3
-28 -30 c-25 -27 -30 -29 -42 -15 -39 47 -172 61 -238 26z m1149 -74 c0 -56
-1 -60 -15 -42 -8 10 -15 17 -15 14 -1 -3 -3 -23 -5 -45 -12 -132 -19 -175
-26 -175 -5 0 -9 -25 -9 -55 0 -30 -4 -55 -10 -55 -5 0 -10 -21 -10 -46 l0
-46 -57 4 -57 3 -1 57 c0 40 -4 58 -12 58 -9 0 -13 17 -13 50 0 47 -12 66 -23
38 -3 -7 -6 11 -6 40 -1 28 -5 52 -10 52 -12 0 -17 -17 -20 -75 -1 -27 -7 -52
-13 -54 -6 -2 -5 -7 3 -13 11 -7 11 -11 2 -15 -8 -3 -13 -25 -14 -56 0 -29 -3
-46 -6 -39 -9 23 -23 12 -23 -18 0 -29 -2 -30 -45 -30 -43 0 -45 1 -45 30 0
17 -4 30 -9 30 -5 0 -8 15 -6 32 1 18 0 44 -3 58 -5 22 -6 23 -13 5 -5 -13 -8
3 -8 43 -1 39 -5 61 -11 57 -6 -4 -10 20 -10 65 0 45 -4 69 -10 65 -6 -4 -10
17 -10 54 l0 61 34 0 c34 0 34 0 40 -57 4 -32 7 -77 8 -100 1 -46 14 -58 21
-20 2 12 5 -11 6 -50 1 -51 5 -73 14 -74 10 0 10 -2 0 -6 -20 -7 -15 -25 5
-21 19 4 19 4 21 81 1 37 4 48 11 37 7 -11 10 6 11 55 1 68 1 69 14 40 14 -29
14 -27 15 43 l0 72 40 0 c38 0 40 -1 41 -32 1 -24 3 -27 6 -10 8 42 20 22 22
-35 0 -32 6 -59 11 -61 6 -2 10 -28 10 -58 0 -30 5 -54 10 -54 6 0 10 -18 10
-40 0 -22 5 -40 10 -40 6 0 10 26 11 58 0 46 2 52 10 34 5 -13 7 -28 3 -33 -3
-5 0 -9 5 -9 7 0 11 27 11 70 0 40 4 70 10 70 6 0 10 25 10 56 0 62 12 80 56
87 16 2 30 5 32 6 1 0 2 -27 2 -61z m880 12 c0 -27 -3 -49 -7 -49 -5 1 -46 1
-93 0 l-85 -1 0 -65 0 -65 68 0 67 0 0 -40 0 -40 -68 0 -68 0 1 -57 2 -58 92
1 91 1 0 -43 0 -42 -125 -1 -125 -2 0 250 0 250 123 4 c67 1 123 4 125 5 1 1
2 -20 2 -48z m-1850 30 c0 -5 9 -10 21 -10 16 0 19 -4 14 -20 -4 -11 -2 -20 4
-20 7 0 11 -39 11 -110 0 -91 -3 -110 -15 -110 -8 0 -15 -4 -15 -10 0 -6 -31
-10 -72 -10 l-73 0 1 -57 2 -58 86 1 86 1 0 -44 0 -43 -130 0 -130 0 0 110 c0
74 4 110 11 110 6 0 9 7 5 15 -3 9 0 15 9 15 8 0 15 7 15 15 0 12 15 15 75 15
l75 0 0 65 0 65 -50 0 -50 0 0 -40 0 -40 -45 0 -45 0 0 55 c0 32 4 55 10 55 6
0 10 6 8 13 -2 7 4 20 12 29 12 14 33 17 98 18 48 0 82 -4 82 -10z m420 -45
l0 -55 -42 1 -43 2 40 7 c37 7 36 7 -20 8 -42 0 -54 -2 -40 -8 17 -7 17 -9 3
-9 -17 -1 -18 -17 -18 -196 l0 -195 -35 0 -35 0 0 205 0 205 -55 0 -55 0 0 45
0 45 150 0 150 0 0 -55z m690 -195 l0 -250 -45 0 -45 0 0 250 0 250 45 0 45 0
0 -250z m346 235 c8 -8 21 -12 28 -9 10 4 14 -9 15 -53 0 -31 4 -65 7 -75 5
-16 -1 -18 -41 -18 l-47 0 4 39 3 39 -62 4 -63 3 0 -177 0 -178 60 0 60 0 0
40 0 40 43 0 42 0 0 -50 c0 -41 -3 -50 -17 -50 -10 0 -18 -7 -18 -16 0 -33
-26 -44 -109 -44 -47 0 -81 4 -81 10 0 6 -13 10 -30 10 -23 0 -30 4 -30 20 0
11 -4 20 -10 20 -6 0 -10 73 -10 200 0 127 4 200 10 200 6 0 10 9 10 20 0 16
7 20 30 20 17 0 30 5 30 10 0 17 159 13 176 -5z m341 -92 c-20 -2 -52 -2 -70
0 -17 2 0 4 38 4 39 0 53 -2 32 -4z m-402 -63 c33 -34 87 -41 121 -15 10 8 22
15 27 15 4 0 7 -43 7 -95 0 -52 -2 -95 -5 -95 -2 0 -19 9 -37 20 -46 28 -62
25 -108 -16 -21 -20 -44 -33 -50 -29 -6 4 -10 52 -10 119 0 140 5 148 55 96z
m-1407 -347 c-38 -2 -98 -2 -135 0 -38 2 -7 3 67 3 74 0 105 -1 68 -3z m1790
0 c-32 -2 -86 -2 -120 0 -35 2 -9 3 57 3 66 0 94 -1 63 -3z"/>
<path d="M2427 343 c18 -2 50 -2 70 0 21 2 7 4 -32 4 -38 0 -55 -2 -38 -4z"/>
<path d="M637 343 c18 -2 50 -2 70 0 21 2 7 4 -32 4 -38 0 -55 -2 -38 -4z"/>
</g>
</svg>
