<?xml version="1.0" standalone="no"?>
<!DOCTYPE svg PUBLIC "-//W3C//DTD SVG 20010904//EN"
 "http://www.w3.org/TR/2001/REC-SVG-20010904/DTD/svg10.dtd">
<svg version="1.0" xmlns="http://www.w3.org/2000/svg"
 width="300.000000pt" height="78.000000pt" viewBox="0 0 300.000000 78.000000"
 preserveAspectRatio="xMidYMid meet">
<metadata>
Created by potrace 1.10, written by Peter Selinger 2001-2011
</metadata>
<g transform="translate(0.000000,78.000000) scale(0.100000,-0.100000)"
fill="#fff" stroke="none">
<path d="M693 747 c-79 -79 -84 -158 -20 -307 14 -33 14 -38 -10 -90 -75 -161
-15 -316 121 -314 37 1 63 8 91 26 60 37 66 38 114 10 92 -52 166 -48 219 12
61 69 65 139 16 261 l-27 67 20 42 c58 118 51 218 -19 288 -35 35 -43 38 -93
38 -43 0 -64 -6 -102 -30 -26 -16 -53 -30 -61 -30 -8 0 -37 14 -64 30 -38 24
-59 30 -101 29 -45 0 -56 -4 -84 -32z m157 -27 c8 -11 20 -20 27 -20 7 0 13
-4 13 -10 0 -5 6 -10 14 -10 7 0 19 -7 26 -15 9 -11 15 -12 26 -2 33 29 44 37
54 37 5 0 10 5 10 10 0 6 9 10 20 10 11 0 20 5 20 10 0 6 20 10 45 10 25 0 45
-4 45 -10 0 -5 5 -10 11 -10 19 0 41 -30 50 -68 9 -39 -8 -172 -22 -172 -4 0
-10 -14 -14 -30 -4 -17 -11 -28 -16 -24 -5 3 -9 -4 -9 -15 0 -12 4 -21 10 -21
5 0 12 -16 16 -35 3 -19 10 -35 14 -35 4 0 10 -11 14 -24 22 -89 15 -144 -25
-190 -19 -22 -31 -26 -76 -26 -29 0 -53 5 -53 10 0 6 -3 9 -7 8 -13 -3 -67 26
-76 39 -11 18 -46 16 -53 -2 -4 -8 -12 -15 -19 -15 -7 0 -24 -9 -38 -20 -27
-21 -127 -29 -127 -10 0 6 -5 10 -11 10 -6 0 -19 10 -30 23 -15 18 -19 36 -17
95 0 39 4 72 9 72 4 0 11 14 14 32 4 17 14 38 21 46 16 15 19 68 4 77 -5 3
-19 26 -30 52 -21 48 -29 183 -11 183 5 0 13 9 16 20 3 11 13 20 21 20 8 0 14
5 14 10 0 6 24 10 53 10 41 0 56 -4 67 -20z"/>
<path d="M1444 605 c-22 -15 -44 -71 -88 -221 -32 -113 -32 -127 0 -153 35
-28 47 -27 87 9 19 17 38 30 42 30 4 0 23 -13 42 -30 36 -32 53 -36 84 -20 13
7 25 7 38 0 40 -21 82 18 93 84 2 13 18 23 48 32 62 19 60 20 60 -31 0 -35 6
-52 25 -71 24 -24 28 -24 162 -22 124 2 139 4 163 24 l25 22 28 -24 c34 -29
56 -30 91 -3 33 26 33 38 -6 121 l-32 69 27 55 c32 64 34 104 9 127 -25 23
-54 21 -85 -3 -32 -25 -39 -25 -63 1 -14 16 -26 19 -49 14 -16 -3 -37 -5 -45
-5 -185 13 -202 12 -225 -10 l-23 -21 -38 20 c-27 15 -57 21 -100 21 -73 0
-95 -18 -104 -86 -7 -58 -21 -60 -37 -5 -23 80 -78 112 -129 76z m80 -31 c3
-9 6 -31 6 -50 0 -19 4 -34 9 -34 6 0 13 -20 17 -45 3 -25 10 -45 14 -45 4 0
11 -25 15 -55 3 -30 11 -55 16 -55 5 0 9 -9 9 -20 0 -16 -7 -20 -30 -20 -23 0
-30 4 -30 20 0 11 -4 20 -10 20 -5 0 -9 6 -7 13 1 8 -14 13 -45 15 -38 2 -48
0 -48 -12 0 -9 -4 -16 -10 -16 -5 0 -10 -9 -10 -20 0 -16 -7 -20 -30 -20 -23
0 -30 5 -30 19 0 11 5 21 11 23 6 2 13 25 16 51 3 25 9 44 13 42 5 -3 11 17
15 45 4 27 10 50 15 50 4 0 11 20 14 45 7 42 9 45 39 46 l32 2 -35 7 -35 7 36
2 c25 1 39 -4 43 -15z m191 6 l-50 -7 68 -1 c70 -2 97 -15 97 -46 0 -9 5 -16
10 -16 14 0 12 -53 -3 -82 -24 -46 -45 -60 -86 -56 -47 4 -61 -10 -60 -59 0
-30 2 -34 9 -18 7 17 9 15 9 -12 1 -30 -2 -33 -29 -33 l-30 0 0 170 0 170 58
-2 57 -1 -50 -7z m359 -12 c11 -55 7 -58 -66 -58 l-68 0 0 -36 0 -36 63 4 c61
3 62 3 65 -24 l3 -27 -65 6 -66 6 0 -47 0 -46 75 0 75 0 0 -30 0 -30 -100 0
-100 0 0 170 0 170 90 0 c85 0 90 -1 94 -22z m110 6 c3 -9 6 -28 6 -42 0 -21
2 -24 10 -12 8 12 10 9 10 -12 0 -18 5 -28 15 -28 8 0 15 6 15 14 0 8 7 22 16
30 9 10 11 16 4 16 -7 0 -5 6 4 16 9 8 16 20 16 25 0 5 14 9 30 9 28 0 30 -2
24 -27 -4 -15 -13 -34 -21 -41 -7 -7 -13 -18 -13 -23 0 -6 -7 -17 -15 -25 -8
-9 -15 -24 -15 -35 0 -10 -5 -19 -11 -19 -6 0 -3 -7 5 -16 9 -8 16 -22 16 -30
0 -8 5 -14 10 -14 6 0 10 -9 10 -20 0 -10 6 -23 13 -27 8 -4 17 -20 21 -35 6
-27 5 -28 -29 -28 -28 0 -35 4 -35 20 0 11 -4 20 -10 20 -5 0 -12 16 -16 35
-7 40 -19 45 -30 13 -3 -12 -13 -28 -20 -36 -8 -7 -14 -22 -14 -33 0 -16 -7
-19 -40 -19 -22 0 -40 5 -40 10 0 6 4 10 9 10 5 0 13 10 17 22 3 12 13 28 20
36 8 7 14 22 14 33 0 11 4 18 9 15 5 -3 11 4 15 17 6 27 -3 67 -15 67 -5 0 -9
6 -9 14 0 8 -6 21 -14 29 -8 8 -18 31 -21 51 -7 35 -6 36 23 36 18 0 32 -6 36
-16z m-59 -118 c18 -33 18 -36 0 -75 -17 -39 -37 -52 -50 -31 -3 5 4 23 15 38
21 28 21 31 6 59 -14 28 -13 43 4 43 4 0 15 -15 25 -34z"/>
<path d="M1477 483 c-4 -3 -7 -24 -7 -45 0 -21 -4 -38 -10 -38 -5 0 -10 -7
-10 -15 0 -10 10 -15 33 -15 43 0 50 8 32 34 -8 11 -15 35 -15 53 0 31 -9 41
-23 26z"/>
<path d="M1690 465 c0 -45 0 -45 36 -45 52 0 75 29 58 74 -4 11 -19 16 -50 16
l-44 0 0 -45z"/>
<path d="M1943 573 c20 -2 54 -2 75 0 20 2 3 4 -38 4 -41 0 -58 -2 -37 -4z"/>
</g>
</svg>
