<?xml version="1.0" standalone="no"?>
<!DOCTYPE svg PUBLIC "-//W3C//DTD SVG 20010904//EN"
 "http://www.w3.org/TR/2001/REC-SVG-20010904/DTD/svg10.dtd">
<svg version="1.0" xmlns="http://www.w3.org/2000/svg"
 width="300.000000pt" height="100.000000pt" viewBox="0 0 300.000000 100.000000"
 preserveAspectRatio="xMidYMid meet">
<metadata>
Created by potrace 1.10, written by Peter Selinger 2001-2011
</metadata>
<g transform="translate(0.000000,100.000000) scale(0.100000,-0.100000)"
fill="#fff" stroke="none">
<path d="M308 863 c-30 -32 -48 -89 -48 -151 0 -28 -10 -60 -29 -95 -39 -69
-71 -177 -71 -238 0 -37 5 -53 22 -69 27 -25 98 -27 133 -4 22 14 26 14 47 0
14 -10 44 -16 81 -16 49 0 62 4 83 25 29 29 28 42 -13 165 -14 41 -36 113 -48
160 -43 158 -86 250 -120 250 -6 0 -23 -12 -37 -27z m53 -10 c4 -49 11 -79 19
-81 6 -2 10 -17 10 -33 0 -18 5 -29 14 -29 11 0 24 -59 29 -137 0 -7 4 -13 8
-13 4 0 10 -22 14 -50 4 -31 12 -50 20 -50 8 0 16 -19 20 -50 4 -27 11 -50 16
-50 5 0 9 -7 9 -15 0 -12 -15 -15 -74 -15 l-74 0 -13 85 c-7 47 -17 85 -22 85
-5 0 -7 9 -4 20 3 13 0 20 -8 20 -28 0 -32 259 -5 268 6 2 10 15 10 28 0 15 6
24 15 24 8 0 15 -3 16 -7z m-62 -285 c6 -26 11 -90 11 -142 l0 -96 -61 0 -61
0 6 31 c3 17 6 42 6 55 0 12 7 29 15 38 10 10 12 17 4 21 -8 5 -8 10 0 18 6 6
11 24 11 39 0 18 5 28 15 28 10 0 15 10 15 28 0 31 10 47 20 35 4 -5 12 -29
19 -55z"/>
<path d="M1693 817 c-13 -7 -37 -32 -55 -56 -44 -61 -51 -141 -17 -209 13 -26
27 -48 32 -50 11 -5 9 -22 -3 -22 -28 0 -50 39 -60 106 -13 89 -44 191 -66
215 -27 30 -127 18 -108 -13 4 -6 3 -8 -3 -5 -24 15 -48 -49 -68 -182 -15 -97
-26 -121 -55 -121 -25 0 -30 28 -30 166 0 107 -2 124 -21 148 -22 28 -66 35
-87 14 -9 -9 -18 -9 -37 0 -14 7 -66 12 -116 12 -83 0 -92 -2 -113 -25 -29
-31 -33 -31 -58 0 -25 32 -79 34 -107 4 -29 -31 -33 -45 -100 -341 -18 -77
-14 -122 12 -146 30 -29 59 -28 95 3 37 31 47 31 84 0 34 -29 64 -32 96 -9 21
14 26 14 56 0 43 -20 48 -20 80 5 26 20 26 21 26 159 0 113 3 141 16 154 8 9
20 14 25 11 5 -4 9 -71 9 -151 0 -140 1 -146 24 -169 24 -23 29 -24 140 -21
103 2 119 5 139 24 30 29 52 28 89 -3 33 -28 65 -32 93 -11 16 11 26 11 72 -5
62 -22 120 -15 157 20 28 26 38 26 60 2 10 -11 39 -24 64 -30 58 -14 104 -2
143 35 l28 27 31 -33 c26 -28 35 -31 63 -26 40 8 54 8 93 1 24 -5 37 -1 61 19
38 32 45 32 91 1 39 -27 63 -31 92 -15 12 6 28 6 48 -1 24 -8 37 -7 60 5 17 9
32 21 34 28 3 9 15 4 37 -15 39 -32 79 -35 115 -6 l26 20 0 220 0 220 -25 24
c-31 32 -52 31 -87 -2 l-28 -26 -24 26 c-40 43 -121 32 -145 -20 -6 -13 -11
-58 -11 -100 0 -42 -3 -74 -6 -71 -3 4 -14 41 -25 85 -24 98 -44 127 -92 131
-27 2 -42 -3 -66 -25 -26 -23 -36 -45 -55 -123 l-23 -95 -4 92 c-3 73 -8 97
-25 120 -29 38 -67 42 -98 8 l-24 -26 -37 25 c-72 49 -151 43 -200 -16 l-25
-30 -21 26 c-41 52 -116 71 -166 43z m-640 -34 c-29 -2 -77 -2 -105 0 -29 2
-6 3 52 3 58 0 81 -1 53 -3z m747 -3 c0 -5 6 -10 14 -10 10 0 15 -16 18 -51 1
-28 1 -52 -2 -54 -3 -2 -31 3 -63 10 -57 13 -57 13 -63 -10 -8 -33 2 -45 39
-45 30 -1 31 -1 13 -15 -19 -14 -17 -15 18 -15 30 0 37 -3 32 -15 -3 -9 0 -15
9 -15 26 0 48 -131 25 -145 -6 -4 -8 -10 -5 -15 8 -13 -6 -40 -21 -40 -8 0
-11 -6 -8 -15 5 -12 -6 -15 -65 -15 -56 0 -71 3 -71 15 0 8 -8 15 -18 15 -15
0 -18 9 -19 50 -1 43 2 50 18 50 11 0 19 -4 19 -10 0 -5 23 -10 50 -10 49 0
50 1 50 29 0 27 -3 30 -37 33 -30 2 -37 7 -35 21 2 10 -3 17 -12 17 -9 0 -18
11 -22 25 -3 14 -11 25 -18 25 -7 0 -11 21 -11 60 0 42 4 60 13 60 7 0 15 14
19 30 4 21 11 30 25 30 10 0 16 5 13 10 -4 6 13 10 44 10 28 0 51 -4 51 -10z
m255 0 c-4 -6 6 -10 23 -10 l29 0 2 -70 c1 -57 -2 -70 -14 -70 -8 0 -15 9 -15
19 0 15 -10 22 -42 29 -48 9 -78 -2 -78 -29 0 -19 20 -29 56 -29 30 0 32 -17
2 -23 -17 -3 -14 -5 10 -6 17 0 32 -6 32 -12 0 -14 25 -39 39 -39 14 0 15
-149 1 -170 -7 -11 -10 -12 -10 -2 0 10 -3 10 -15 -2 -8 -8 -15 -19 -15 -25 0
-7 -27 -11 -70 -11 -56 0 -70 3 -70 15 0 8 -4 15 -10 15 -5 0 -10 23 -10 50 0
38 4 50 15 50 8 0 15 -4 15 -10 0 -6 27 -10 61 -10 60 0 60 0 57 28 -3 24 -7
27 -45 30 -42 3 -59 24 -30 35 6 3 -3 6 -20 6 -18 1 -34 6 -34 11 -3 19 -4 25
-10 35 -13 22 -10 116 5 130 8 8 12 24 9 36 -4 14 -1 20 8 19 8 -1 25 -2 39 0
23 1 23 2 5 10 -15 6 -6 9 33 9 33 1 51 -3 47 -9z m-1245 -30 c0 -11 5 -20 10
-20 6 0 10 -22 10 -50 0 -27 5 -50 10 -50 6 0 10 -16 10 -35 0 -19 4 -35 8
-35 8 0 26 -88 38 -187 l5 -43 -35 0 c-32 0 -36 3 -36 25 0 14 -5 25 -11 25
-8 0 -8 5 1 15 14 17 14 17 -50 17 -63 0 -67 -1 -51 -11 9 -6 10 -14 3 -27 -5
-11 -7 -25 -5 -31 3 -9 -8 -13 -36 -13 l-40 0 6 53 c3 28 9 54 14 57 4 3 11
38 14 77 4 40 11 71 15 68 8 -5 20 52 20 98 0 15 5 27 10 27 6 0 10 14 10 30
0 28 2 30 40 30 33 0 40 -3 40 -20z m293 -22 c-1 -21 -2 -43 -2 -49 -1 -7 -13
-9 -36 -5 l-35 7 0 -176 0 -175 -30 0 -30 0 0 174 0 175 -35 -6 -35 -6 0 52 0
52 102 -3 101 -3 0 -37z m119 -123 l-4 -165 46 0 c44 0 46 -1 46 -30 0 -16 -4
-30 -10 -30 -5 0 -10 -11 -10 -25 0 -24 -2 -25 -65 -25 l-65 0 0 220 0 220 33
0 33 0 -4 -165z m296 123 c1 -24 6 -44 11 -46 6 -2 11 -22 11 -43 0 -47 18
-128 33 -147 8 -10 7 -16 -4 -23 -10 -6 -10 -9 -1 -9 7 0 12 -15 12 -40 0 -22
5 -40 10 -40 6 0 10 -11 10 -25 0 -22 -4 -25 -40 -25 l-40 0 0 43 0 42 -55 0
-55 0 0 -42 0 -43 -40 0 c-36 0 -40 3 -40 25 0 14 4 25 8 25 5 0 9 17 10 37 1
20 6 39 12 43 6 3 12 29 15 56 12 126 18 164 26 164 5 0 9 20 9 45 l0 45 54 0
54 0 0 -42z m732 -178 l0 -220 -35 0 -35 0 0 220 0 220 35 0 35 0 0 -220z
m223 204 c-1 -7 2 -27 8 -45 5 -19 12 -59 15 -89 4 -30 10 -56 15 -58 5 -2 9
-19 9 -38 0 -21 4 -33 10 -29 6 4 10 -12 10 -39 0 -25 5 -46 10 -46 6 0 10
-18 10 -40 l0 -40 -40 0 c-27 0 -40 4 -39 13 1 6 1 26 0 42 -1 30 -2 30 -56
30 l-55 0 0 -42 0 -43 -45 0 c-48 0 -59 15 -30 44 8 8 15 31 15 50 0 20 4 36
9 36 4 0 11 28 15 63 4 34 10 82 13 107 2 25 9 47 14 48 5 2 9 15 9 28 0 13 5
24 10 24 6 0 10 5 10 11 0 5 -4 7 -10 4 -5 -3 -10 0 -10 8 0 11 13 14 53 13
33 -1 51 -5 50 -12z m227 -16 c0 -22 3 -29 9 -19 6 8 11 -6 15 -43 5 -34 12
-55 19 -53 8 1 13 -19 15 -61 2 -39 7 -62 14 -60 6 2 10 50 9 136 l-2 132 36
0 35 0 0 -220 0 -220 -45 0 c-47 0 -50 4 -48 68 1 6 -5 12 -12 12 -7 0 -16 19
-19 45 -4 25 -11 45 -16 45 -5 0 -12 29 -15 65 -4 36 -11 65 -15 65 -5 0 -6 9
-3 20 3 11 0 20 -6 20 -8 0 -11 -51 -11 -170 l0 -170 -35 0 -35 0 0 218 0 219
55 2 55 2 0 -33z m-1772 -167 c2 -31 -2 -59 -8 -65 -6 -6 -10 -7 -9 -1 3 10
-8 75 -17 108 -5 14 -1 18 13 15 14 -2 19 -14 21 -57z m1212 29 c0 -33 -11
-38 -30 -15 -10 12 -10 18 0 30 19 23 30 18 30 -15z m-1340 -210 c0 -5 -14
-10 -31 -10 -17 0 -28 4 -24 10 3 6 17 10 31 10 13 0 24 -4 24 -10z m1650 0
c11 -7 5 -10 -23 -10 -23 0 -36 4 -32 10 8 13 35 13 55 0z"/>
<path d="M750 633 c0 -21 -3 -62 -7 -91 l-6 -53 34 4 c19 3 34 6 35 6 0 1 -5
33 -12 73 -7 39 -10 77 -7 85 3 8 -2 13 -16 13 -18 0 -21 -6 -21 -37z"/>
<path d="M1457 670 c-3 -14 -8 -60 -11 -102 l-6 -78 35 3 c29 2 35 6 35 25 0
12 -5 22 -11 22 -5 0 -7 -4 -4 -10 3 -5 1 -10 -4 -10 -6 0 -11 21 -12 48 0 26
-4 65 -8 87 -7 36 -8 37 -14 15z"/>
<path d="M2417 680 c-3 -8 -8 -55 -12 -103 l-6 -88 33 3 c25 3 34 10 36 26 4
23 -13 31 -21 10 -3 -7 -6 10 -7 37 -2 66 -15 134 -23 115z"/>
<path d="M2614 550 c0 -113 2 -159 3 -102 2 56 2 148 0 205 -1 56 -3 10 -3
-103z"/>
</g>
</svg>
