<svg width="24" height="25" viewBox="0 0 24 25" fill="none" xmlns="http://www.w3.org/2000/svg">
<g id="vuesax/bold/calculator">
<path id="Vector" d="M16 2.5H8C5.24 2.5 3 4.74 3 7.5V17.5C3 20.26 5.24 22.5 8 22.5H16C18.76 22.5 21 20.26 21 17.5V7.5C21 4.74 18.76 2.5 16 2.5ZM8.86 19.13C8.67 19.32 8.42 19.42 8.16 19.42C7.89 19.42 7.64 19.32 7.45 19.13C7.26 18.94 7.15 18.69 7.15 18.42C7.15 18.16 7.26 17.9 7.45 17.71C7.54 17.62 7.65 17.55 7.77 17.5C8.02 17.4 8.29 17.4 8.54 17.5C8.6 17.52 8.66 17.55 8.71 17.59C8.77 17.62 8.82 17.67 8.86 17.71C9.05 17.9 9.16 18.16 9.16 18.42C9.16 18.69 9.05 18.94 8.86 19.13ZM7.15 14.42C7.15 14.29 7.18 14.16 7.23 14.04C7.28 13.91 7.35 13.81 7.45 13.71C7.68 13.48 8.03 13.37 8.35 13.44C8.41 13.45 8.48 13.47 8.54 13.5C8.6 13.52 8.66 13.55 8.71 13.59C8.77 13.62 8.82 13.67 8.86 13.71C8.95 13.81 9.03 13.91 9.08 14.04C9.13 14.16 9.15 14.29 9.15 14.42C9.15 14.69 9.05 14.94 8.86 15.13C8.67 15.32 8.42 15.42 8.16 15.42C8.02 15.42 7.89 15.39 7.77 15.34C7.65 15.29 7.54 15.22 7.45 15.13C7.26 14.94 7.15 14.69 7.15 14.42ZM12.86 19.13C12.77 19.22 12.66 19.29 12.54 19.34C12.42 19.39 12.29 19.42 12.15 19.42C11.89 19.42 11.64 19.32 11.45 19.13C11.26 18.94 11.15 18.69 11.15 18.42C11.15 18.35 11.16 18.29 11.17 18.22C11.19 18.16 11.21 18.1 11.23 18.04C11.26 17.98 11.29 17.92 11.32 17.86C11.36 17.81 11.4 17.76 11.45 17.71C11.54 17.62 11.65 17.55 11.77 17.5C12.14 17.35 12.58 17.43 12.86 17.71C13.05 17.9 13.15 18.16 13.15 18.42C13.15 18.69 13.05 18.94 12.86 19.13ZM12.86 15.13C12.67 15.32 12.42 15.42 12.15 15.42C11.89 15.42 11.64 15.32 11.45 15.13C11.26 14.94 11.15 14.69 11.15 14.42C11.15 14.16 11.26 13.9 11.45 13.71C11.82 13.34 12.49 13.34 12.86 13.71C12.95 13.81 13.03 13.91 13.08 14.04C13.13 14.16 13.15 14.29 13.15 14.42C13.15 14.69 13.05 14.94 12.86 15.13ZM9 10.96C7.97 10.96 7.12 10.12 7.12 9.08V8.08C7.12 7.05 7.96 6.2 9 6.2H15C16.03 6.2 16.88 7.04 16.88 8.08V9.08C16.88 10.11 16.04 10.96 15 10.96H9ZM16.86 19.13C16.67 19.32 16.42 19.42 16.15 19.42C16.02 19.42 15.89 19.39 15.77 19.34C15.65 19.29 15.54 19.22 15.45 19.13C15.26 18.94 15.16 18.69 15.16 18.42C15.16 18.16 15.26 17.9 15.45 17.71C15.72 17.43 16.17 17.35 16.54 17.5C16.66 17.55 16.77 17.62 16.86 17.71C17.05 17.9 17.15 18.16 17.15 18.42C17.15 18.69 17.05 18.94 16.86 19.13ZM17.08 14.8C17.03 14.92 16.96 15.03 16.86 15.13C16.67 15.32 16.42 15.42 16.15 15.42C15.89 15.42 15.64 15.32 15.45 15.13C15.26 14.94 15.15 14.69 15.15 14.42C15.15 14.16 15.26 13.9 15.45 13.71C15.82 13.34 16.49 13.34 16.86 13.71C17.05 13.9 17.16 14.16 17.16 14.42C17.16 14.55 17.13 14.68 17.08 14.8Z" fill="white"/>
</g>
</svg>
