<svg width="24" height="25" viewBox="0 0 24 25" fill="none" xmlns="http://www.w3.org/2000/svg">
<g id="vuesax/bold/cards">
<g id="cards">
<path id="Vector" d="M15.22 7.0498H5.78C5.5 7.0498 5.24 7.0598 5 7.0698C2.63 7.2098 2 8.0798 2 10.7798V11.3598C2 11.9098 2.45 12.3598 3 12.3598H18C18.55 12.3598 19 11.9098 19 11.3598V10.7798C19 7.7998 18.24 7.0498 15.22 7.0498Z" fill="white"/>
<path id="Vector_2" d="M3 13.8599C2.45 13.8599 2 14.3099 2 14.8599V17.7699C2 20.7499 2.76 21.4999 5.78 21.4999H15.22C18.19 21.4999 18.97 20.7799 19 17.9299V14.8599C19 14.3099 18.55 13.8599 18 13.8599H3ZM6.96 19.0599H5.25C4.84 19.0599 4.5 18.7199 4.5 18.3099C4.5 17.8999 4.84 17.5599 5.25 17.5599H6.97C7.38 17.5599 7.72 17.8999 7.72 18.3099C7.72 18.7199 7.38 19.0599 6.96 19.0599ZM12.55 19.0599H9.11C8.7 19.0599 8.36 18.7199 8.36 18.3099C8.36 17.8999 8.7 17.5599 9.11 17.5599H12.55C12.96 17.5599 13.3 17.8999 13.3 18.3099C13.3 18.7199 12.97 19.0599 12.55 19.0599Z" fill="white"/>
<path id="Vector_3" d="M22.0001 13.8301V8.5901C22.0001 5.4601 20.2101 4.1001 17.5101 4.1001H8.58011C7.82011 4.1001 7.14011 4.2101 6.54011 4.4401C6.07011 4.6101 5.65011 4.8601 5.31011 5.1901C5.13011 5.3601 5.27011 5.6401 5.53011 5.6401H16.4001C18.6501 5.6401 20.4701 7.4601 20.4701 9.7101V16.8801C20.4701 17.1301 20.7401 17.2701 20.9201 17.0901C21.6101 16.3601 22.0001 15.2901 22.0001 13.8301Z" fill="white"/>
</g>
</g>
</svg>
