<?xml version="1.0" standalone="no"?>
<!DOCTYPE svg PUBLIC "-//W3C//DTD SVG 20010904//EN"
 "http://www.w3.org/TR/2001/REC-SVG-20010904/DTD/svg10.dtd">
<svg version="1.0" xmlns="http://www.w3.org/2000/svg"
 width="300.000000pt" height="66.000000pt" viewBox="0 0 300.000000 66.000000"
 preserveAspectRatio="xMidYMid meet">
<metadata>
Created by potrace 1.10, written by Peter Selinger 2001-2011
</metadata>
<g transform="translate(0.000000,66.000000) scale(0.100000,-0.100000)"
fill="#fff" stroke="none">
<path d="M396 636 c-8 -14 -18 -43 -22 -65 -4 -23 -8 -41 -10 -41 -2 0 -25 14
-51 30 -56 36 -82 38 -111 7 -29 -31 -28 -44 8 -100 21 -33 26 -49 17 -52 -6
-2 -31 -9 -54 -15 -42 -11 -73 -40 -73 -70 0 -24 39 -56 85 -70 58 -18 58 -18
29 -55 -36 -48 -37 -91 -1 -119 l29 -21 60 33 c33 18 63 31 65 28 2 -2 7 -19
10 -38 9 -58 33 -88 71 -88 41 0 69 29 78 83 8 45 19 54 42 33 10 -8 35 -23
56 -31 37 -16 41 -16 65 3 35 26 37 55 7 107 -14 24 -26 46 -26 48 0 3 12 8
28 11 56 13 83 30 98 58 14 27 14 30 -15 58 -18 19 -44 32 -70 36 -23 4 -41
10 -41 15 0 4 11 25 25 45 30 44 32 77 5 104 -26 26 -46 25 -99 -6 -46 -26
-71 -26 -71 0 0 9 -7 34 -16 56 -15 38 -18 40 -59 40 -34 0 -46 -5 -59 -24z
m74 -17 c0 -11 5 -17 10 -14 6 4 10 -27 10 -84 0 -54 -4 -91 -10 -91 -5 0 -10
-13 -10 -30 0 -43 14 -37 39 15 12 25 26 45 31 45 6 0 10 5 10 11 0 15 26 39
34 32 3 -4 6 -1 6 5 0 7 8 12 18 12 10 0 24 9 32 20 21 29 50 26 50 -6 0 -14
-4 -23 -10 -19 -5 3 -10 -2 -10 -12 0 -10 -9 -25 -20 -33 -11 -8 -20 -19 -20
-24 0 -13 -39 -44 -64 -52 -11 -3 -35 -17 -52 -30 -17 -13 -34 -20 -38 -17 -3
4 -6 1 -6 -5 0 -7 7 -12 15 -12 8 0 15 4 15 9 0 13 54 23 158 28 61 3 92 1 92
-6 0 -6 7 -11 15 -11 8 0 15 -7 15 -15 0 -8 -6 -15 -14 -15 -8 0 -16 -5 -18
-10 -5 -15 -191 -15 -196 -1 -4 13 -52 15 -52 2 0 -4 20 -19 45 -32 25 -13 45
-27 45 -31 0 -5 9 -8 20 -8 12 0 20 -7 20 -18 0 -9 9 -23 20 -30 11 -7 20 -19
20 -27 0 -8 5 -15 10 -15 6 0 10 -9 10 -20 0 -15 -7 -20 -25 -20 -14 0 -25 5
-25 10 0 6 -6 10 -13 10 -8 0 -24 9 -37 20 -13 11 -27 20 -32 20 -4 0 -8 7 -8
15 0 8 -4 15 -9 15 -5 0 -14 14 -21 30 -7 17 -16 30 -21 30 -5 0 -9 7 -9 15 0
8 -4 15 -10 15 -5 0 -10 -11 -10 -25 0 -14 5 -25 10 -25 6 0 10 -37 10 -90 0
-53 -4 -90 -10 -90 -5 0 -10 -7 -10 -15 0 -8 -9 -15 -20 -15 -11 0 -20 7 -20
15 0 8 -4 15 -10 15 -6 0 -10 27 -10 62 0 67 19 168 32 168 5 0 8 5 8 11 0 19
-30 -11 -50 -52 -11 -20 -16 -39 -13 -43 4 -3 2 -6 -4 -6 -5 0 -19 -8 -31 -18
-11 -9 -30 -24 -42 -32 -12 -8 -28 -21 -36 -28 -18 -17 -64 -16 -64 3 0 8 5
15 10 15 6 0 10 9 10 21 0 11 5 17 10 14 6 -3 10 1 10 9 0 9 7 16 16 16 8 0
12 5 9 10 -3 6 -2 10 4 10 5 0 13 9 16 20 3 11 11 20 16 20 17 0 99 42 99 51
0 12 -33 12 -46 0 -18 -18 -220 -18 -209 -1 3 6 -1 10 -9 10 -9 0 -16 7 -16
15 0 8 9 15 20 15 11 0 20 5 20 10 0 6 35 10 84 10 47 0 88 -4 91 -10 3 -5 21
-10 38 -10 l32 0 -25 20 c-14 11 -30 20 -37 20 -26 0 -63 24 -63 41 0 10 -9
21 -20 24 -11 3 -20 13 -20 21 0 8 -4 14 -10 14 -5 0 -10 7 -10 16 0 8 -4 12
-10 9 -6 -4 -10 6 -10 22 0 22 2 25 10 13 6 -10 10 -11 10 -2 0 6 7 12 16 12
8 0 12 -4 9 -10 -3 -5 1 -10 10 -10 15 0 25 -6 59 -37 8 -7 16 -9 20 -6 3 4 6
-3 6 -15 0 -11 8 -23 18 -26 10 -4 28 -25 40 -49 l22 -42 -5 35 c-15 91 -17
180 -4 209 16 36 49 42 49 10z"/>
<path d="M1030 504 c-77 -33 -103 -80 -103 -181 1 -86 25 -133 82 -162 79 -39
145 -37 214 10 l41 27 32 -28 c46 -40 101 -47 160 -21 43 19 49 20 70 6 31
-20 51 -19 80 4 25 20 25 20 61 -2 45 -26 117 -28 159 -3 30 18 32 18 59 0 40
-26 117 -24 155 5 l31 22 26 -20 c31 -25 51 -26 81 -5 21 14 25 14 47 0 29
-19 49 -20 74 -4 14 9 27 8 58 -5 44 -17 140 -14 181 6 17 8 25 8 34 -1 19
-19 57 -14 83 13 24 23 25 29 25 165 0 136 -1 142 -25 165 -13 14 -34 25 -45
25 -34 0 -70 -44 -70 -85 0 -19 -2 -35 -4 -35 -2 0 -21 7 -42 16 -42 18 -109
13 -140 -11 -30 -23 -36 -18 -29 25 6 34 3 43 -19 65 -32 32 -47 31 -86 -1
-27 -23 -35 -25 -56 -16 -32 15 -65 0 -88 -40 -15 -25 -23 -29 -45 -24 -80 18
-90 18 -136 -4 -42 -20 -47 -21 -70 -6 -38 25 -96 30 -139 12 -46 -19 -56 -14
-56 28 0 37 -34 76 -66 76 -27 0 -64 -40 -64 -71 0 -44 -11 -50 -63 -31 -44
16 -50 16 -94 -1 -44 -15 -49 -15 -58 -1 -59 95 -160 129 -255 88z m155 -33
c-3 -5 5 -13 17 -17 27 -8 47 -32 48 -56 0 -30 -58 -24 -72 7 -10 21 -18 25
-57 25 -35 0 -50 -5 -61 -19 -7 -11 -17 -18 -22 -15 -4 3 -8 -2 -8 -10 0 -9
-4 -16 -10 -16 -5 0 -10 -21 -10 -46 0 -27 4 -43 10 -39 6 3 10 1 10 -5 0 -15
25 -40 40 -40 6 0 8 -5 5 -10 -4 -6 10 -10 34 -10 23 0 41 5 41 10 0 6 6 10
13 10 7 0 17 8 24 19 6 10 23 21 37 23 21 4 26 1 26 -16 0 -12 -9 -28 -19 -36
-11 -7 -18 -17 -16 -21 3 -4 -6 -10 -20 -13 -14 -4 -25 -11 -25 -16 0 -6 -22
-10 -50 -10 -27 0 -50 4 -50 9 0 5 -18 12 -40 16 -22 4 -38 11 -34 16 3 5 0 9
-6 9 -6 0 -9 4 -6 9 4 5 1 11 -4 13 -15 5 -14 148 1 182 8 17 23 29 41 33 15
3 28 9 28 14 0 5 32 9 71 9 40 0 68 -4 64 -9z m405 -146 l0 -155 -24 0 -25 0
-3 151 c-2 83 -1 153 1 155 2 2 15 4 28 4 l23 0 0 -155z m700 134 c0 -11 -6
-27 -14 -35 -17 -16 -30 -19 -21 -4 3 6 -1 10 -9 10 -10 0 -16 9 -16 25 0 21
5 25 30 25 24 0 30 -4 30 -21z m360 -1 c0 -19 -2 -20 -10 -8 -7 10 -10 -27
-10 -113 0 -83 4 -126 10 -122 6 4 10 -6 10 -22 0 -22 -2 -25 -10 -13 -6 10
-10 11 -10 3 0 -7 -11 -13 -25 -13 l-25 0 0 155 0 155 35 0 c30 0 35 -3 35
-22z m-482 -40 c-2 -29 0 -33 20 -31 18 2 22 -2 22 -27 0 -24 -4 -30 -22 -30
-22 0 -23 -3 -20 -80 l4 -80 -32 0 -32 0 4 80 c3 77 2 80 -19 80 -19 0 -23 6
-23 30 0 25 4 29 22 27 20 -2 22 2 20 31 -3 30 -2 32 28 32 30 0 31 -2 28 -32z
m-1008 -53 c19 -14 47 -25 62 -25 15 0 28 -4 28 -10 0 -5 -10 -10 -23 -10 -13
0 -38 -11 -57 -25 -19 -14 -44 -25 -56 -25 -52 0 -75 74 -32 104 30 21 38 20
78 -9z m280 15 c0 -5 7 -10 15 -10 14 0 19 -12 16 -32 0 -5 4 -8 9 -8 5 0 10
-15 10 -32 l0 -33 -80 1 c-80 1 -92 -5 -66 -32 16 -16 96 -19 96 -4 0 6 11 10
25 10 18 0 25 -5 25 -20 0 -13 -9 -22 -25 -26 -14 -3 -25 -10 -25 -15 0 -5
-20 -9 -45 -9 -25 0 -45 5 -45 10 0 6 -6 10 -13 10 -26 0 -47 39 -47 90 0 28
5 50 10 50 6 0 10 7 10 16 0 9 8 23 18 30 20 16 112 19 112 4z m350 0 c0 -5 9
-10 20 -10 13 0 20 -7 20 -20 0 -11 5 -20 10 -20 6 0 10 -15 10 -32 l0 -33
-80 1 c-80 1 -93 -5 -66 -32 16 -16 86 -19 86 -4 0 6 14 10 30 10 35 0 38 -10
9 -30 -12 -8 -27 -21 -35 -27 -15 -15 -84 -18 -84 -4 0 5 -13 12 -30 16 -24 5
-30 12 -30 34 0 15 -5 32 -11 38 -7 7 -7 16 0 29 5 11 12 31 16 47 3 15 12 27
20 27 8 0 15 5 15 10 0 6 23 10 50 10 28 0 50 -4 50 -10z m239 -19 c12 -16 21
-32 21 -35 0 -13 -51 -5 -56 9 -4 9 -19 15 -35 15 -22 0 -29 -5 -29 -19 0 -12
9 -22 23 -26 12 -3 39 -13 60 -22 31 -14 37 -21 37 -47 0 -62 -110 -90 -156
-40 -13 14 -24 29 -24 35 0 18 55 9 70 -11 18 -26 47 -26 55 0 9 29 1 37 -45
43 -52 7 -70 22 -70 58 0 41 35 69 86 69 36 0 46 -5 63 -29z m261 -81 c0 -109
0 -110 -24 -110 -31 0 -32 6 -28 123 3 95 4 97 28 97 24 0 24 0 24 -110z m215
85 c23 -22 25 -32 25 -110 0 -78 -2 -85 -20 -85 -11 0 -20 5 -20 10 0 6 -9 10
-20 10 -11 0 -20 -4 -20 -10 0 -17 -68 -11 -90 7 -12 11 -20 30 -20 50 0 26 6
36 30 48 16 8 47 15 70 15 42 0 50 11 26 36 -19 18 -44 18 -62 -1 -14 -14 -74
-22 -74 -10 0 3 14 18 31 35 42 40 107 42 144 5z"/>
<path d="M1370 341 c0 -5 -9 -11 -20 -14 -41 -11 -20 -27 35 -27 56 0 67 9 41
36 -16 15 -56 19 -56 5z"/>
<path d="M1703 335 c-24 -27 -14 -35 42 -35 59 0 66 6 35 33 -24 20 -60 22
-77 2z"/>
<path d="M2413 263 c-26 -5 -30 -28 -9 -49 20 -20 36 -18 57 8 36 41 21 54
-48 41z"/>
</g>
</svg>
