<svg width="29" height="29" viewBox="0 0 29 29" fill="none" xmlns="http://www.w3.org/2000/svg">
<g id="icon / cloud-upload">
<g id="icon">
<path d="M7.49935 11.5833C7.49935 8.03942 10.3722 5.16659 13.916 5.16659C17.0552 5.16659 19.67 7.42196 20.2242 10.401C20.3019 10.8188 20.6006 11.1613 21.0039 11.295C23.3265 12.0653 24.9994 14.2554 24.9994 16.8333C24.9994 20.0549 22.3877 22.6666 19.166 22.6666C18.5217 22.6666 17.9993 23.1889 17.9993 23.8333C17.9993 24.4776 18.5217 24.9999 19.166 24.9999C23.6763 24.9999 27.3327 21.3436 27.3327 16.8333C27.3327 13.4587 25.2866 10.5647 22.37 9.31942C21.372 5.58425 17.9664 2.83325 13.916 2.83325C9.08352 2.83325 5.16602 6.75076 5.16602 11.5833C5.16602 11.7002 5.16832 11.8168 5.17288 11.9327C3.07824 13.1412 1.66602 15.4046 1.66602 17.9999C1.66602 21.8659 4.80002 24.9999 8.66602 24.9999C9.31035 24.9999 9.83268 24.4776 9.83268 23.8333C9.83268 23.1889 9.31035 22.6666 8.66602 22.6666C6.08869 22.6666 3.99935 20.5772 3.99935 17.9999C3.99935 16.0664 5.17556 14.4048 6.85611 13.6969C7.34242 13.492 7.63067 12.9862 7.55908 12.4634C7.51975 12.1762 7.49935 11.8824 7.49935 11.5833Z" fill="#475367"/>
<path d="M13.7243 17.1279C14.1663 16.735 14.8324 16.735 15.2744 17.1279L17.0244 18.6835C17.506 19.1116 17.5494 19.849 17.1213 20.3306C16.7468 20.7519 16.1356 20.8378 15.666 20.5661V26.1666C15.666 26.8109 15.1437 27.3333 14.4993 27.3333C13.855 27.3333 13.3327 26.8109 13.3327 26.1666V20.5661C12.8631 20.8378 12.2519 20.7519 11.8774 20.3306C11.4493 19.849 11.4927 19.1116 11.9743 18.6835L13.7243 17.1279Z" fill="#475367"/>
</g>
</g>
</svg>
