<svg width="57" height="56" viewBox="0 0 57 56" fill="none" xmlns="http://www.w3.org/2000/svg">
<circle cx="28.5" cy="28" r="28" fill="#E7F6EC"/>
<path fill-rule="evenodd" clip-rule="evenodd" d="M28.5 41.125C35.7487 41.125 41.625 35.2487 41.625 28C41.625 20.7513 35.7487 14.875 28.5 14.875C21.2513 14.875 15.375 20.7513 15.375 28C15.375 35.2487 21.2513 41.125 28.5 41.125ZM33.86 26.1588C34.4539 25.6148 34.4944 24.6923 33.9505 24.0984C33.4065 23.5044 32.484 23.4639 31.89 24.0079L26.5058 28.9391L25.11 27.6608C24.516 27.1168 23.5935 27.1573 23.0496 27.7513C22.5056 28.3452 22.5461 29.2677 23.14 29.8117L25.5208 31.9921C26.0782 32.5026 26.9333 32.5026 27.4907 31.9921L33.86 26.1588Z" fill="#0F973D"/>
</svg>
