<svg width="408" height="189" viewBox="0 0 408 189" fill="none" xmlns="http://www.w3.org/2000/svg">
<path d="M34.6784 18.1969L18.8721 34.0033L12.833 27.9659L22.6045 18.1969L12.833 8.42716L18.8721 2.39062L34.6784 18.1969Z" fill="white"/>
<path d="M28.5918 31.7451L22.5537 37.7832L28.5918 43.8213L34.6299 37.7832L28.5918 31.7451Z" fill="#4DDF9C"/>
<path d="M9.15089 31.7461L3.11279 37.7842L9.15089 43.8223L15.189 37.7842L9.15089 31.7461Z" fill="#4DDF9C"/>
<path d="M9.10217 12.1576L3.06348 18.1963L9.10217 24.235L15.1409 18.1963L9.10217 12.1576Z" fill="#4DDF9C"/>
<path d="M72.5672 14.131C71.948 12.8396 71.062 11.7593 69.9074 10.8919C68.7545 10.0245 67.3558 9.36902 65.7113 8.92559C64.0669 8.48217 62.2188 8.26172 60.1698 8.26172C58.1207 8.26172 56.2693 8.48301 54.6146 8.92559C52.9617 9.36902 51.5529 10.0245 50.3898 10.8919C49.2268 11.7593 48.3315 12.8387 47.7022 14.131C47.073 15.4225 46.7588 16.9124 46.7588 18.5991C46.7588 20.2858 47.073 21.7749 47.7022 23.0672C48.3315 24.3586 49.2268 25.4389 50.3898 26.3063C51.5529 27.1737 52.9617 27.8292 54.6146 28.2726C56.2693 28.716 58.1198 28.9365 60.1698 28.9365C62.2197 28.9365 64.0669 28.7152 65.7113 28.2726C67.3558 27.8292 68.7545 27.1737 69.9074 26.3063C71.062 25.4389 71.948 24.3594 72.5672 23.0672C73.1871 21.7757 73.4962 20.2858 73.4962 18.5991C73.4962 16.9124 73.188 15.4233 72.5672 14.131ZM67.7849 20.7934C67.5509 21.5232 67.1371 22.1786 66.5416 22.7597C65.9445 23.3417 65.1328 23.813 64.1032 24.1761C63.0736 24.5376 61.7627 24.7192 60.1706 24.7192C59.1038 24.7192 58.1646 24.6356 57.3546 24.4692C56.5438 24.3028 55.8436 24.0739 55.2523 23.7834C54.6611 23.492 54.1653 23.1516 53.7658 22.7606C53.3646 22.3703 53.0462 21.9489 52.808 21.4953C52.5698 21.0434 52.4 20.5696 52.3004 20.073C52.2007 19.5772 52.15 19.0856 52.15 18.5999C52.15 18.1143 52.2016 17.6404 52.3004 17.1489C52.4 16.6573 52.5698 16.186 52.808 15.7324C53.0462 15.2806 53.3654 14.8557 53.7658 14.4596C54.1653 14.0643 54.6611 13.7197 55.2523 13.4241C55.8436 13.1284 56.5438 12.897 57.3546 12.7306C58.1655 12.5642 59.1047 12.4806 60.1706 12.4806C61.7627 12.4806 63.0727 12.6622 64.1032 13.0237C65.1328 13.3869 65.9453 13.8574 66.5416 14.4402C67.1371 15.0213 67.5509 15.6767 67.7849 16.4064C68.0172 17.1354 68.1346 17.8668 68.1346 18.6008C68.1346 19.3348 68.0172 20.067 67.7849 20.7951V20.7934Z" fill="white"/>
<path d="M99.0511 15.2383C98.7749 14.267 98.3872 13.4156 97.8864 12.6867C97.3847 11.9569 96.7816 11.342 96.0763 10.842C95.3711 10.342 94.5873 9.93828 93.724 9.63337C92.8625 9.32762 91.9351 9.10633 90.9427 8.96781C89.9519 8.83013 88.9181 8.76172 87.8412 8.76172H75.3999V28.4077H87.8691C88.946 28.4077 89.9798 28.3393 90.9723 28.1999C91.9638 28.0623 92.8887 27.8401 93.746 27.5361C94.605 27.2303 95.3829 26.8249 96.0839 26.3206C96.785 25.8147 97.3847 25.1998 97.8864 24.476C98.3864 23.7521 98.7741 22.9007 99.0511 21.9227C99.3273 20.9471 99.4667 19.828 99.4667 18.5695C99.4667 17.311 99.3273 16.2113 99.0511 15.2383ZM93.7536 21.0291C93.5104 21.725 93.1201 22.3044 92.5804 22.7673C92.0424 23.2293 91.3397 23.5731 90.4722 23.7969C89.6048 24.0207 88.5473 24.1322 87.2973 24.1322H80.705V13.0372H87.2973C88.5465 13.0372 89.604 13.1495 90.4722 13.3734C91.3397 13.5972 92.0424 13.935 92.5804 14.3886C93.1201 14.8405 93.5112 15.4157 93.7536 16.1108C93.996 16.8068 94.1176 17.6261 94.1176 18.5704C94.1176 19.5146 93.996 20.3348 93.7536 21.0299V21.0291Z" fill="white"/>
<path d="M101.371 8.75586V28.4078H106.674V8.75586H101.371Z" fill="white"/>
<path d="M133.324 12.2289C132.938 11.3953 132.382 10.6841 131.658 10.0971C130.934 9.51176 130.05 9.0582 129.006 8.73978C127.963 8.42051 126.778 8.26172 125.452 8.26172C124.395 8.26172 123.39 8.35716 122.435 8.5472C121.482 8.73724 120.581 8.98641 119.733 9.29047C118.884 9.59623 118.085 9.93746 117.331 10.3133C116.578 10.6909 115.868 11.0693 115.201 11.4502V8.76258H109.896V28.4086H115.201V16.0829C115.753 15.6159 116.384 15.1674 117.096 14.7383C117.805 14.3092 118.551 13.9325 119.332 13.609C120.113 13.2855 120.903 13.0254 121.7 12.8295C122.495 12.6352 123.255 12.5372 123.98 12.5372C124.933 12.5372 125.712 12.6546 126.318 12.8869C126.922 13.1208 127.395 13.4503 127.733 13.8743C128.071 14.2983 128.304 14.8076 128.426 15.4047C128.55 16.0002 128.612 16.6641 128.612 17.3989V28.4094H133.904V15.0246C133.904 13.9959 133.71 13.0643 133.324 12.2306V12.2289Z" fill="white"/>
<path d="M53.9152 34.0166L52.3679 36.9162L50.8197 34.0166H49.415V37.847H50.4497V35.1568L51.8721 37.847H52.8636L54.286 35.1568V37.847H55.3147V34.0166H53.9161H53.9152Z" fill="white"/>
<path d="M67.0947 34.0166H65.9401L63.9341 37.847H65.0887L65.4485 37.1231H67.5845L67.9444 37.847H69.099L67.0947 34.0166ZM65.8201 36.3748L66.522 34.9643L67.218 36.3748H65.8193H65.8201Z" fill="white"/>
<path d="M80.9991 36.3326C81.1131 36.2946 81.2203 36.2447 81.3225 36.1848C81.4247 36.1265 81.5143 36.053 81.592 35.9668C81.6697 35.8807 81.7313 35.7768 81.7761 35.6552C81.8217 35.5352 81.8445 35.3933 81.8445 35.232C81.8445 35.0479 81.8166 34.8807 81.7609 34.732C81.7068 34.5817 81.619 34.4541 81.4957 34.3485C81.3741 34.2421 81.2161 34.1602 81.0219 34.1028C80.8284 34.0445 80.5919 34.0166 80.3124 34.0166H77.7202V37.847H78.7549V36.4365H79.8841L81.0447 37.847H82.2542L80.9991 36.3326ZM80.7693 35.4153C80.7507 35.4677 80.7153 35.5107 80.6671 35.5428C80.619 35.5749 80.5548 35.6003 80.4737 35.6146C80.3935 35.629 80.2921 35.6366 80.1705 35.6366H78.754V34.8173H80.1705C80.2921 34.8173 80.3926 34.8249 80.4737 34.8393C80.5539 34.8536 80.619 34.8773 80.6671 34.9111C80.7153 34.9432 80.7507 34.9854 80.7693 35.0369C80.7879 35.0893 80.7989 35.1526 80.7989 35.2269C80.7989 35.3013 80.7887 35.3646 80.7693 35.4153Z" fill="white"/>
<path d="M92.9562 35.8545L95.5356 34.0166H94.1488L92.0305 35.477V34.0166H90.9907V37.847H92.0305V36.2549L94.2003 37.847H95.7088L92.957 35.8545H92.9562Z" fill="white"/>
<path d="M105.364 37.0302V36.2827H108.035V35.4668H105.364V34.8334H108.18V34.0166H104.301V37.847H108.218V37.0302H105.364Z" fill="white"/>
<path d="M116.697 34.0166V34.8502H118.322V37.8461H119.357V34.8502H120.985V34.0166H116.697Z" fill="white"/>
<path d="M133.427 36.3419C133.371 36.2304 133.295 36.1324 133.198 36.0463C133.102 35.9618 132.989 35.8867 132.862 35.8225C132.734 35.7583 132.597 35.7008 132.453 35.6527C132.309 35.6046 132.16 35.5623 132.007 35.5268C131.855 35.4905 131.705 35.4567 131.561 35.4255C131.417 35.3951 131.281 35.3655 131.153 35.336C131.025 35.3064 130.913 35.276 130.817 35.2439C130.72 35.2118 130.644 35.1755 130.587 35.1324C130.531 35.0902 130.503 35.042 130.503 34.9863C130.503 34.9685 130.506 34.9508 130.513 34.9305C130.519 34.9103 130.534 34.89 130.556 34.8689C130.579 34.8486 130.611 34.8275 130.652 34.8089C130.694 34.7895 130.752 34.7726 130.822 34.7574C130.894 34.743 130.983 34.7295 131.088 34.7211C131.192 34.7126 131.319 34.7067 131.468 34.7067C131.654 34.7067 131.835 34.7211 132.011 34.7473C132.188 34.7734 132.352 34.8072 132.503 34.8486C132.653 34.8883 132.788 34.9305 132.906 34.9745C133.025 35.0201 133.122 35.0589 133.193 35.0944V34.2075C133.073 34.1695 132.941 34.1315 132.799 34.0961C132.655 34.0606 132.509 34.0302 132.357 34.0023C132.204 33.9761 132.05 33.9542 131.892 33.939C131.736 33.9246 131.582 33.917 131.434 33.917C131.298 33.917 131.155 33.9229 131.004 33.933C130.854 33.9449 130.706 33.9651 130.558 33.9947C130.412 34.0251 130.272 34.0665 130.14 34.1205C130.007 34.1746 129.89 34.2447 129.788 34.3309C129.687 34.417 129.606 34.5226 129.548 34.6442C129.488 34.7675 129.458 34.9136 129.458 35.0834C129.458 35.2253 129.486 35.3529 129.542 35.461C129.598 35.5691 129.674 35.6654 129.77 35.7473C129.866 35.8309 129.98 35.9027 130.108 35.9627C130.236 36.0226 130.372 36.075 130.516 36.1223C130.66 36.1679 130.808 36.2068 130.961 36.2406C131.113 36.2727 131.261 36.3047 131.406 36.3326C131.55 36.3622 131.686 36.3909 131.814 36.4188C131.943 36.4483 132.056 36.4804 132.152 36.5142C132.248 36.5497 132.324 36.5885 132.38 36.6342C132.436 36.6798 132.464 36.7338 132.464 36.7955C132.464 36.8335 132.45 36.8749 132.421 36.9188C132.394 36.961 132.341 37.0007 132.263 37.037C132.184 37.0725 132.076 37.1029 131.938 37.1266C131.799 37.1502 131.621 37.1604 131.401 37.1604C131.029 37.1604 130.68 37.1207 130.354 37.0421C130.028 36.9619 129.738 36.8504 129.483 36.7102V37.6249C129.73 37.717 130.014 37.7947 130.338 37.8572C130.66 37.9188 131.011 37.9509 131.389 37.9509C131.535 37.9509 131.687 37.9467 131.849 37.9366C132.01 37.9281 132.168 37.9087 132.326 37.8783C132.482 37.8487 132.633 37.8065 132.775 37.7524C132.919 37.6967 133.045 37.6241 133.155 37.5328C133.263 37.4425 133.349 37.3293 133.415 37.1975C133.479 37.0658 133.513 36.9078 133.513 36.7237C133.513 36.5801 133.485 36.4534 133.428 36.3419H133.427Z" fill="white"/>
<path d="M32.6187 8.68164V9.02878H32.0993V10.381H31.7015V9.02878H31.1846V8.68164H32.6196H32.6187Z" fill="white"/>
<path d="M34.3569 8.68164H34.7142V10.381H34.3189V9.31764L33.8189 9.92915H33.7412L33.2361 9.31511V10.381H32.8408V8.68164H33.1981L33.7784 9.40548L34.3586 8.68164H34.3569Z" fill="white"/>
<path d="M12.0007 168.5C9.82806 168.5 9.55539 168.509 8.70205 168.548C7.85037 168.587 7.26903 168.722 6.76036 168.92C6.23419 169.124 5.78785 169.398 5.34318 169.843C4.89818 170.287 4.62484 170.734 4.41984 171.26C4.2215 171.768 4.0865 172.35 4.04817 173.201C4.01 174.055 4 174.327 4 176.5C4 178.673 4.00967 178.944 4.04833 179.798C4.0875 180.649 4.22234 181.231 4.42 181.74C4.62451 182.266 4.89784 182.712 5.34268 183.157C5.78719 183.602 6.23352 183.876 6.75936 184.08C7.26837 184.278 7.84987 184.413 8.70138 184.452C9.55472 184.491 9.82723 184.5 11.9998 184.5C14.1726 184.5 14.4444 184.491 15.2978 184.452C16.1495 184.413 16.7315 184.278 17.2405 184.08C17.7665 183.876 18.2121 183.602 18.6567 183.157C19.1017 182.712 19.375 182.266 19.58 181.74C19.7767 181.231 19.9117 180.649 19.9517 179.798C19.99 178.945 20 178.673 20 176.5C20 174.327 19.99 174.055 19.9517 173.201C19.9117 172.35 19.7767 171.768 19.58 171.26C19.375 170.733 19.1017 170.287 18.6567 169.843C18.2116 169.398 17.7666 169.124 17.24 168.92C16.73 168.722 16.1483 168.587 15.2966 168.548C14.4433 168.509 14.1716 168.5 11.9982 168.5H12.0007ZM11.2831 169.942C11.4961 169.941 11.7337 169.942 12.0007 169.942C14.1368 169.942 14.3899 169.949 15.2335 169.988C16.0135 170.023 16.4368 170.154 16.7188 170.263C17.0921 170.408 17.3583 170.581 17.6381 170.861C17.9181 171.141 18.0915 171.408 18.2368 171.781C18.3463 172.063 18.4768 172.487 18.5123 173.267C18.5507 174.11 18.559 174.363 18.559 176.498C18.559 178.633 18.5507 178.887 18.5123 179.73C18.4767 180.51 18.3463 180.933 18.2368 181.215C18.0918 181.588 17.9181 181.854 17.6381 182.134C17.3581 182.414 17.0923 182.587 16.7188 182.732C16.4371 182.842 16.0135 182.972 15.2335 183.008C14.3901 183.046 14.1368 183.055 12.0007 183.055C9.86456 183.055 9.61139 183.046 8.76805 183.008C7.98804 182.972 7.5647 182.842 7.28253 182.732C6.9092 182.587 6.64253 182.414 6.36252 182.134C6.08252 181.854 5.90919 181.588 5.76385 181.214C5.65435 180.932 5.52385 180.509 5.48835 179.729C5.45002 178.886 5.44235 178.632 5.44235 176.496C5.44235 174.36 5.45002 174.108 5.48835 173.264C5.52402 172.484 5.65435 172.061 5.76385 171.779C5.90885 171.406 6.08252 171.139 6.36252 170.859C6.64253 170.579 6.9092 170.406 7.28253 170.26C7.56454 170.15 7.98804 170.021 8.76805 169.985C9.50606 169.951 9.79206 169.941 11.2831 169.94V169.942ZM16.2711 171.27C15.7411 171.27 15.3111 171.7 15.3111 172.23C15.3111 172.76 15.7411 173.19 16.2711 173.19C16.8011 173.19 17.2311 172.76 17.2311 172.23C17.2311 171.7 16.8011 171.27 16.2711 171.27ZM12.0007 172.392C9.73189 172.392 7.89237 174.231 7.89237 176.5C7.89237 178.769 9.73189 180.608 12.0007 180.608C14.2696 180.608 16.1085 178.769 16.1085 176.5C16.1085 174.231 14.2695 172.392 12.0007 172.392ZM12.0007 173.833C13.4734 173.833 14.6674 175.027 14.6674 176.5C14.6674 177.973 13.4734 179.167 12.0007 179.167C10.5279 179.167 9.33406 177.973 9.33406 176.5C9.33406 175.027 10.5279 173.833 12.0007 173.833Z" fill="white"/>
<path d="M52.3988 182.935L48.7059 182.867C47.5102 182.844 46.3115 182.891 45.1393 182.647C43.3561 182.283 43.2297 180.497 43.0975 178.998C42.9154 176.892 42.9859 174.747 43.3296 172.658C43.5237 171.486 44.2874 170.787 45.4683 170.711C49.455 170.435 53.4682 170.467 57.4461 170.596C57.8662 170.608 58.2892 170.673 58.7034 170.746C60.7483 171.104 60.7981 173.129 60.9307 174.833C61.0629 176.554 61.007 178.285 60.7544 179.994C60.5517 181.41 60.1638 182.597 58.5271 182.712C56.4764 182.862 54.4728 182.983 52.4164 182.944C52.4165 182.935 52.4046 182.935 52.3988 182.935ZM50.2277 179.351C51.7731 178.464 53.289 177.591 54.8255 176.71C53.2772 175.822 51.7642 174.95 50.2277 174.069V179.351Z" fill="white"/>
<mask id="mask0_512_1271" style="mask-type:luminance" maskUnits="userSpaceOnUse" x="83" y="167" width="18" height="19">
<path d="M101 167.5H83V185.5H101V167.5Z" fill="white"/>
</mask>
<g mask="url(#mask0_512_1271)">
<path d="M88.1781 183.5V174.054H85.1769V183.5H88.1781ZM86.6781 172.764C87.7245 172.764 88.3759 172.039 88.3759 171.132C88.3563 170.205 87.7245 169.5 86.698 169.5C85.6708 169.5 85 170.205 85 171.132C85 172.039 85.6512 172.764 86.6584 172.764L86.6781 172.764ZM89.8392 183.5H92.8401V178.225C92.8401 177.943 92.8597 177.66 92.939 177.459C93.1559 176.895 93.6497 176.311 94.4789 176.311C95.5646 176.311 95.9992 177.177 95.9992 178.447V183.5H99V178.084C99 175.182 97.5196 173.832 95.5452 173.832C93.9264 173.832 93.2154 174.779 92.8204 175.423H92.8404V174.054H89.8394C89.8786 174.94 89.8392 183.5 89.8392 183.5Z" fill="white"/>
</g>
<path d="M128.661 184.134C135.454 184.134 139.168 178.505 139.168 173.623C139.168 173.463 139.165 173.304 139.158 173.145C139.881 172.622 140.504 171.974 141 171.232C140.338 171.526 139.626 171.725 138.879 171.814C139.642 171.356 140.227 170.633 140.503 169.77C139.778 170.201 138.985 170.504 138.158 170.667C137.484 169.949 136.525 169.5 135.462 169.5C133.423 169.5 131.769 171.154 131.769 173.194C131.769 173.484 131.802 173.766 131.865 174.036C128.796 173.882 126.074 172.412 124.253 170.176C123.925 170.74 123.752 171.381 123.753 172.033C123.753 173.315 124.405 174.446 125.396 175.108C124.81 175.09 124.236 174.932 123.723 174.646C123.723 174.662 123.723 174.677 123.723 174.693C123.723 176.483 124.996 177.976 126.686 178.315C126.368 178.401 126.041 178.445 125.712 178.445C125.474 178.445 125.243 178.421 125.018 178.378C125.488 179.846 126.851 180.914 128.468 180.944C127.204 181.935 125.611 182.526 123.881 182.526C123.587 182.526 123.292 182.509 123 182.474C124.634 183.522 126.575 184.134 128.661 184.134Z" fill="white"/>
<mask id="mask1_512_1271" style="mask-type:luminance" maskUnits="userSpaceOnUse" x="163" y="169" width="18" height="15">
<path d="M181 169.5H163V183.444H181V169.5Z" fill="white"/>
</mask>
<g mask="url(#mask1_512_1271)">
<path d="M178.238 170.742C177.09 170.215 175.86 169.828 174.574 169.605C174.55 169.601 174.527 169.612 174.515 169.633C174.357 169.915 174.181 170.282 174.059 170.57C172.675 170.363 171.299 170.363 169.944 170.57C169.821 170.275 169.639 169.915 169.48 169.633C169.468 169.613 169.445 169.602 169.422 169.605C168.136 169.827 166.906 170.215 165.758 170.742C165.748 170.746 165.739 170.753 165.734 170.763C163.4 174.249 162.761 177.649 163.074 181.008C163.076 181.024 163.085 181.04 163.098 181.05C164.637 182.181 166.129 182.867 167.592 183.322C167.616 183.329 167.641 183.321 167.656 183.301C168.002 182.828 168.31 182.33 168.575 181.806C168.591 181.775 168.576 181.739 168.544 181.726C168.054 181.541 167.588 181.314 167.14 181.057C167.104 181.036 167.101 180.986 167.134 180.961C167.228 180.891 167.323 180.817 167.413 180.743C167.429 180.729 167.452 180.726 167.471 180.735C170.417 182.08 173.606 182.08 176.517 180.735C176.536 180.726 176.559 180.729 176.576 180.742C176.666 180.816 176.761 180.891 176.856 180.961C176.888 180.986 176.886 181.036 176.851 181.057C176.402 181.319 175.936 181.541 175.446 181.726C175.414 181.738 175.4 181.775 175.415 181.806C175.686 182.329 175.994 182.828 176.334 183.301C176.348 183.321 176.374 183.329 176.397 183.322C177.868 182.867 179.359 182.181 180.899 181.05C180.913 181.04 180.921 181.025 180.922 181.009C181.298 177.126 180.294 173.753 178.261 170.763C178.256 170.753 178.248 170.746 178.238 170.742ZM169.015 178.963C168.128 178.963 167.397 178.149 167.397 177.149C167.397 176.149 168.114 175.335 169.015 175.335C169.923 175.335 170.647 176.156 170.633 177.149C170.633 178.149 169.916 178.963 169.015 178.963ZM174.996 178.963C174.109 178.963 173.378 178.149 173.378 177.149C173.378 176.149 174.095 175.335 174.996 175.335C175.904 175.335 176.628 176.156 176.614 177.149C176.614 178.149 175.904 178.963 174.996 178.963Z" fill="white"/>
</g>
</svg>
