<svg width="32" height="29" viewBox="0 0 32 29" fill="none" xmlns="http://www.w3.org/2000/svg">
<g clip-path="url(#clip0_966_858)">
<path fill-rule="evenodd" clip-rule="evenodd" d="M25.3433 7.99121H25.3037C24.1541 9.12388 22.9406 10.2115 21.676 11.2412V24.6167H25.3433L25.3433 7.99121ZM16.1751 15.1204V24.6167H19.8423V12.6661C18.6753 13.5302 17.4503 14.3563 16.1751 15.1204ZM10.6742 17.8473V24.6167H14.3415V16.1557C13.1549 16.7847 11.9307 17.3545 10.6742 17.8473ZM5.17333 19.4252V24.6167H8.84059V18.5026C7.6423 18.889 6.41836 19.2011 5.17333 19.4252Z" fill="white"/>
<path d="M25.2072 3.97462C25.1807 4.00591 16.5297 14.3649 5.17337 16.6937V17.9929C14.8826 16.1213 22.684 8.6578 25.3433 5.83545V4.06847L25.2072 3.97462Z" fill="white"/>
<path fill-rule="evenodd" clip-rule="evenodd" d="M26.3645 3.61621L22.6183 4.03865L26.8276 6.99983L26.3645 3.61621Z" fill="white"/>
</g>
<defs>
<clipPath id="clip0_966_858">
<rect width="31" height="28" fill="white" transform="matrix(-1 0 0 1 31.5 0.118164)"/>
</clipPath>
</defs>
</svg>
