<svg width="17" height="16" viewBox="0 0 17 16" fill="none" xmlns="http://www.w3.org/2000/svg">
<path d="M1.13477 7.25732C0.582481 7.25732 0.134766 7.70504 0.134766 8.25732C0.134766 8.80961 0.582481 9.25732 1.13477 9.25732L1.13477 7.25732ZM16.7078 8.96443C17.0984 8.57391 17.0984 7.94074 16.7078 7.55022L10.3439 1.18626C9.95335 0.795732 9.32018 0.795732 8.92966 1.18626C8.53913 1.57678 8.53913 2.20995 8.92966 2.60047L14.5865 8.25732L8.92966 13.9142C8.53913 14.3047 8.53913 14.9379 8.92966 15.3284C9.32018 15.7189 9.95335 15.7189 10.3439 15.3284L16.7078 8.96443ZM1.13477 9.25732L16.0007 9.25732L16.0007 7.25732L1.13477 7.25732L1.13477 9.25732Z" fill="#4DDF9C"/>
</svg>
