<svg width="24" height="25" viewBox="0 0 24 25" fill="none" xmlns="http://www.w3.org/2000/svg">
<path fill-rule="evenodd" clip-rule="evenodd" d="M5.16211 12.5005C5.16211 11.9392 5.60413 11.4842 6.1494 11.4842H14.8875L12.047 8.82901C11.654 8.43997 11.6417 7.79659 12.0197 7.39198C12.3976 6.98738 13.0226 6.97476 13.4156 7.3638L18.023 11.7679C18.2166 11.9595 18.326 12.224 18.326 12.5005C18.326 12.777 18.2166 13.0415 18.023 13.2331L13.4156 17.6372C13.0226 18.0262 12.3976 18.0136 12.0197 17.609C11.6417 17.2044 11.654 16.561 12.047 16.172L14.8875 13.5168H6.1494C5.60413 13.5168 5.16211 13.0618 5.16211 12.5005Z" fill="black"/>
</svg>
