<svg width="24" height="24" viewBox="0 0 24 24" fill="none" xmlns="http://www.w3.org/2000/svg">
<path fill-rule="evenodd" clip-rule="evenodd" d="M5.16235 12.0005C5.16235 11.4392 5.60438 10.9842 6.14965 10.9842H14.8877L12.0473 8.32901C11.6542 7.93997 11.642 7.29659 12.0199 6.89198C12.3978 6.48738 13.0228 6.47476 13.4159 6.8638L18.0232 11.2679C18.2168 11.4595 18.3262 11.724 18.3262 12.0005C18.3262 12.277 18.2168 12.5415 18.0232 12.7331L13.4159 17.1372C13.0228 17.5262 12.3978 17.5136 12.0199 17.109C11.642 16.7044 11.6542 16.061 12.0473 15.672L14.8877 13.0168H6.14965C5.60438 13.0168 5.16235 12.5618 5.16235 12.0005Z" fill="white"/>
</svg>
