<?xml version="1.0" standalone="no"?>
<!DOCTYPE svg PUBLIC "-//W3C//DTD SVG 20010904//EN"
 "http://www.w3.org/TR/2001/REC-SVG-20010904/DTD/svg10.dtd">
<svg version="1.0" xmlns="http://www.w3.org/2000/svg"
 width="300.000000pt" height="66.000000pt" viewBox="0 0 300.000000 66.000000"
 preserveAspectRatio="xMidYMid meet">
<metadata>
Created by potrace 1.10, written by Peter Selinger 2001-2011
</metadata>
<g transform="translate(0.000000,66.000000) scale(0.100000,-0.100000)"
fill="#fff" stroke="none">
<path d="M2820 622 c-25 -8 -50 -45 -50 -78 0 -38 -16 -54 -53 -54 -16 0 -44
-9 -62 -20 -31 -19 -32 -19 -49 -1 -23 26 -148 25 -185 -1 -23 -17 -26 -17
-44 -1 -15 14 -39 17 -127 18 -101 0 -110 -2 -134 -24 l-25 -24 -31 27 c-41
34 -127 37 -178 6 -33 -20 -33 -20 -58 -1 -21 17 -38 20 -101 17 -70 -2 -78
-5 -99 -31 l-23 -29 -23 21 c-13 11 -33 26 -45 32 -34 17 -110 13 -152 -9 -37
-18 -39 -18 -55 -1 -9 10 -16 28 -16 40 0 12 -11 33 -25 46 -50 51 -126 22
-141 -53 -9 -42 -17 -46 -55 -26 -50 25 -131 15 -170 -22 l-30 -28 -23 28
c-22 28 -25 29 -129 32 l-107 4 -39 -35 c-44 -40 -56 -43 -71 -15 -18 33 -67
53 -114 46 -22 -4 -54 -6 -71 -6 -225 7 -247 5 -266 -19 -16 -20 -19 -41 -19
-150 0 -120 1 -129 23 -149 32 -31 90 -30 122 2 l24 24 22 -24 c31 -33 87 -33
119 1 l24 25 26 -25 c36 -34 91 -34 122 0 l23 24 45 -30 c44 -30 45 -30 140
-23 83 6 98 10 122 32 l27 25 31 -27 c17 -14 43 -29 56 -32 39 -10 101 2 130
25 33 26 35 26 64 1 36 -31 92 -27 123 10 l25 29 38 -30 c45 -36 70 -43 134
-37 32 3 61 14 83 31 l34 26 23 -24 c17 -18 34 -25 60 -25 49 0 80 33 81 86 1
21 4 50 8 63 6 23 8 22 19 -17 15 -48 61 -106 103 -128 45 -23 112 -18 147 11
17 14 32 25 35 25 4 0 23 -11 44 -25 35 -25 41 -26 133 -19 55 4 105 12 118
21 21 13 26 13 41 -1 10 -9 35 -16 58 -16 55 0 74 24 83 102 5 45 9 57 14 43
4 -11 13 -33 18 -48 15 -40 45 -75 79 -92 23 -12 49 -14 125 -9 140 10 134 -2
134 247 0 193 -1 205 -20 222 -21 19 -61 27 -90 17z m73 -240 l2 -202 -42 0
c-32 0 -43 4 -43 16 0 13 -5 12 -26 -5 -73 -58 -164 7 -164 117 0 59 18 103
52 126 30 21 96 20 120 -1 17 -15 18 -13 18 71 l0 87 41 -3 40 -3 2 -203z
m-1623 108 c0 -43 3 -50 18 -48 13 2 18 -5 20 -30 3 -27 -1 -35 -17 -39 -19
-5 -21 -13 -21 -99 l0 -94 -44 0 -44 0 5 93 c6 91 5 94 -16 100 -18 4 -22 11
-19 39 2 21 8 33 18 33 12 0 14 11 13 48 l-3 47 45 0 45 0 0 -50z m535 -76 c0
-35 -3 -39 -28 -42 -39 -5 -50 -33 -45 -118 l3 -74 -42 0 -43 0 0 135 0 135
36 0 c28 0 37 -5 41 -20 5 -19 6 -19 29 6 32 34 49 26 49 -22z m785 1 c0 -40
-2 -45 -23 -45 -39 0 -47 -18 -47 -107 l0 -83 -45 0 -45 0 0 136 0 135 43 -3
c27 -2 41 -7 40 -15 -4 -18 5 -16 34 7 37 29 43 25 43 -25z m-2420 15 c0 -11
2 -20 5 -20 3 0 14 9 25 20 29 29 85 27 113 -4 l22 -24 28 24 c37 31 89 32
117 2 26 -28 29 -41 32 -156 l3 -92 -42 0 -43 0 0 88 c0 90 -8 112 -40 112
-38 0 -52 -34 -48 -119 l3 -81 -42 0 -43 0 0 81 c0 44 -5 89 -10 100 -14 25
-42 24 -65 -1 -15 -17 -17 -32 -12 -100 l5 -80 -44 0 -44 0 0 135 0 135 40 0
c33 0 40 -3 40 -20z m567 -2 l23 -21 0 22 c0 20 4 22 43 19 23 -2 41 -6 40
-10 -2 -5 -3 -64 -3 -133 l0 -125 -40 0 c-33 0 -40 3 -40 20 0 18 -2 17 -25
-5 -82 -83 -206 45 -165 169 25 77 116 112 167 64z m354 2 l24 -20 -25 -19
c-23 -18 -26 -18 -52 -3 -21 12 -31 13 -39 5 -19 -19 -4 -38 41 -52 55 -16 80
-43 80 -85 0 -75 -99 -111 -171 -63 -44 30 -47 50 -10 64 26 9 32 8 47 -9 19
-20 55 -21 62 -1 2 8 -16 22 -45 34 -68 29 -83 46 -83 90 0 29 6 42 26 58 36
28 113 29 145 1z m438 6 c37 -20 60 -56 67 -108 l6 -43 -96 3 c-81 3 -96 1
-96 -12 0 -9 11 -23 24 -32 23 -14 28 -14 60 1 39 19 96 13 96 -10 0 -25 -61
-58 -114 -62 -95 -7 -152 54 -144 155 4 48 10 60 41 89 30 27 45 33 82 33 25
0 59 -7 74 -14z m507 3 c11 -18 14 -78 5 -84 -5 -2 -14 2 -21 10 -7 8 -25 15
-41 15 -54 0 -78 -75 -39 -118 25 -26 32 -27 70 -7 33 17 37 13 35 -34 -2 -38
-18 -49 -73 -50 -98 -2 -166 102 -127 195 24 61 59 84 127 84 32 0 60 -5 64
-11z m221 -11 l23 -21 0 22 c0 20 4 22 41 19 l41 -3 1 -133 2 -132 -42 0 c-36
0 -43 3 -43 20 0 18 -2 17 -25 -5 -77 -78 -201 39 -166 157 27 89 113 128 168
76z m-230 -115 c5 -15 -36 -28 -49 -15 -6 6 -7 15 -3 22 9 14 47 9 52 -7z"/>
<path d="M2716 358 c-22 -31 -20 -74 4 -98 26 -26 44 -25 70 2 37 41 15 118
-35 118 -13 0 -31 -10 -39 -22z"/>
<path d="M665 356 c-24 -37 -16 -87 17 -106 26 -14 29 -13 50 7 25 26 30 82 9
107 -20 24 -58 20 -76 -8z"/>
<path d="M1432 384 c-40 -28 -28 -44 33 -44 59 0 67 8 35 40 -24 24 -38 25
-68 4z"/>
<path d="M2186 358 c-9 -12 -16 -35 -16 -50 0 -30 31 -68 54 -68 20 0 56 48
56 74 0 32 -28 66 -55 66 -13 0 -31 -10 -39 -22z"/>
</g>
</svg>
