<svg width="53" height="53" viewBox="0 0 53 53" fill="none" xmlns="http://www.w3.org/2000/svg">
<rect width="53" height="53" rx="16" fill="url(#paint0_linear_512_1637)"/>
<path d="M30.8636 41.5H16.3182V38.501H30.8636V41.5ZM41.0454 14.499L34.1581 23.4285L33.8381 23.8333L25.6491 34.6147C25.3791 34.8946 25.0582 35.1168 24.7047 35.2687C24.3512 35.4205 23.9722 35.4989 23.5892 35.4995C23.2063 35.5 22.8271 35.4227 22.4732 35.2719C22.1193 35.1211 21.7978 34.8998 21.527 34.6206C21.2562 34.3415 21.0416 34.01 20.8953 33.6452C20.749 33.2804 20.6739 32.8894 20.6745 32.4946C20.675 32.0999 20.7511 31.7091 20.8984 31.3447C21.0457 30.9803 21.2612 30.6495 21.5328 30.3711L41.0454 14.499ZM12.8927 19.3491C10.7921 22.8181 10.0368 26.9758 10.7772 30.9934H11.9546V29.4939C11.9391 26.5415 12.7967 23.6544 14.4133 21.2173L12.8927 19.3491ZM26.5 11.5C24.2756 11.4997 22.0757 11.9794 20.0419 12.9082C18.0081 13.837 16.1854 15.1943 14.691 16.8929L16.3546 18.9368C18.3293 17.0653 20.9086 16.0179 23.5909 15.9985C26.2877 16.0179 28.88 17.0758 30.8591 18.9643L36.024 14.7628C33.2741 12.6442 29.933 11.4996 26.5 11.5ZM36.4346 25.2949L36.0951 25.7261L35.0364 27.1201C35.1602 27.905 35.224 28.6987 35.2272 29.4939V30.9934H42.2228C42.9132 27.241 42.3046 23.3578 40.503 20.0205L36.4346 25.2949Z" fill="white"/>
<defs>
<linearGradient id="paint0_linear_512_1637" x1="-1.2619" y1="36.6118" x2="51.3162" y2="37.7352" gradientUnits="userSpaceOnUse">
<stop stop-color="#4DDF9C"/>
<stop offset="1" stop-color="#6453EE" stop-opacity="0.94"/>
</linearGradient>
</defs>
</svg>
