<?xml version="1.0" standalone="no"?>
<!DOCTYPE svg PUBLIC "-//W3C//DTD SVG 20010904//EN"
 "http://www.w3.org/TR/2001/REC-SVG-20010904/DTD/svg10.dtd">
<svg version="1.0" xmlns="http://www.w3.org/2000/svg"
 width="300.000000pt" height="75.000000pt" viewBox="0 0 300.000000 75.000000"
 preserveAspectRatio="xMidYMid meet">
<metadata>
Created by potrace 1.10, written by Peter Selinger 2001-2011
</metadata>
<g transform="translate(0.000000,75.000000) scale(0.100000,-0.100000)"
fill="#fff" stroke="none">
<path d="M552 662 c-12 -12 -24 -38 -27 -59 -3 -21 -10 -54 -15 -73 -4 -19
-11 -60 -15 -90 -3 -30 -13 -93 -22 -139 l-16 -85 27 -23 c15 -13 36 -23 47
-23 15 0 19 -7 19 -33 0 -49 38 -81 97 -81 56 0 87 30 97 95 9 53 21 69 55 69
14 0 48 13 76 28 87 47 132 167 87 233 -78 118 -114 166 -134 179 -16 10 -60
16 -139 18 -107 4 -119 2 -137 -16z m282 -46 c15 -15 30 -42 33 -60 4 -17 19
-43 35 -58 15 -14 28 -33 28 -42 0 -9 5 -16 10 -16 6 0 10 -13 10 -30 0 -16
-4 -30 -8 -30 -5 0 -16 -17 -25 -38 -10 -22 -29 -44 -44 -51 -16 -8 -36 -17
-45 -22 -10 -5 -36 -9 -58 -9 -22 0 -40 -5 -40 -11 0 -5 -4 -7 -10 -4 -6 4
-10 -6 -10 -23 0 -16 -3 -50 -6 -76 l-7 -46 -59 0 c-54 0 -59 2 -53 18 9 18
21 105 31 217 4 39 10 75 14 80 5 6 11 36 15 68 l7 57 102 0 c91 1 99 2 82 15
-14 10 -45 15 -96 15 -67 0 -79 -3 -96 -22 -24 -27 -56 -176 -58 -272 l-1 -66
-47 0 -48 0 0 41 c0 22 4 38 9 35 4 -3 14 48 21 114 8 65 17 117 21 115 3 -3
10 27 13 66 l7 71 124 -3 c121 -4 124 -5 149 -33z"/>
<path d="M1131 556 c-19 -20 -26 -48 -41 -153 -10 -70 -21 -139 -24 -153 -18
-66 83 -109 132 -57 12 13 22 30 22 39 0 23 21 36 65 43 39 6 41 4 67 -40 37
-61 72 -75 172 -70 45 2 87 10 100 19 21 13 22 13 18 -13 -5 -34 25 -62 67
-63 46 -1 72 17 111 77 38 60 46 65 55 36 9 -31 43 -54 76 -53 35 1 79 36 79
63 0 24 24 40 70 46 32 5 40 2 40 -10 0 -24 50 -78 85 -93 22 -9 58 -11 116
-7 91 6 98 6 147 2 52 -3 77 30 97 126 9 44 19 119 22 166 6 82 5 87 -18 102
-52 37 -118 10 -134 -55 -6 -22 -13 -27 -43 -30 -21 -2 -54 1 -74 6 -24 5 -49
4 -70 -3 -31 -11 -34 -10 -66 29 -48 57 -78 70 -165 70 -63 0 -76 -3 -95 -22
-11 -13 -23 -35 -27 -49 -5 -21 -14 -28 -43 -33 -20 -3 -48 -15 -62 -25 -25
-20 -25 -20 -48 2 -19 18 -38 22 -125 26 -156 6 -170 6 -193 -2 -18 -6 -26 -1
-44 28 -33 53 -84 75 -173 75 -65 0 -76 -3 -96 -24z m179 -26 c0 -5 6 -10 13
-10 26 0 57 -49 57 -90 0 -22 -4 -40 -8 -40 -4 0 -15 -13 -25 -29 -11 -19 -29
-32 -50 -36 -17 -4 -35 -12 -38 -17 -4 -6 -14 -5 -27 3 -29 18 -52 -8 -52 -59
0 -21 -2 -41 -5 -43 -2 -3 -20 -3 -40 -1 -35 4 -47 26 -26 47 5 6 15 72 22
148 l13 137 83 0 c49 0 83 -4 83 -10z m810 0 c0 -5 11 -12 24 -16 47 -11 58
-122 15 -145 -11 -5 -17 -14 -14 -19 6 -9 -47 -30 -76 -30 -11 0 -19 -6 -20
-12 0 -10 -2 -10 -6 0 -2 6 -13 12 -23 12 -14 0 -19 -11 -24 -54 -7 -53 -8
-54 -42 -58 -19 -2 -38 0 -41 5 -8 13 20 206 29 201 4 -3 8 14 8 38 0 86 2 88
91 88 45 0 79 -4 79 -10z m456 -17 c-2 -16 -8 -55 -11 -88 -3 -33 -13 -95 -22
-137 l-16 -78 -39 0 c-34 0 -38 3 -38 26 0 14 4 23 8 20 5 -3 14 48 21 112 19
179 17 172 63 172 38 0 39 -1 34 -27z m-1056 -60 c0 -5 11 -13 25 -20 14 -6
25 -7 25 -2 0 5 19 9 41 9 38 0 41 -2 34 -22 -8 -29 -22 -99 -30 -161 l-6 -48
-47 2 c-26 1 -57 -1 -70 -5 -36 -12 -89 11 -104 45 -7 16 -16 29 -20 29 -5 0
-8 14 -8 30 0 17 4 30 8 30 4 0 13 15 20 33 8 23 25 40 50 53 20 10 39 22 40
27 2 4 12 7 23 7 10 0 19 -3 19 -7z m800 -2 c12 -15 60 -30 65 -21 4 6 20 10
36 10 28 0 30 -2 25 -27 -3 -16 -10 -66 -17 -113 -6 -47 -12 -86 -13 -87 -1
-1 -43 -4 -93 -5 -88 -3 -92 -2 -119 25 -23 23 -28 36 -27 77 1 56 37 114 78
124 14 4 25 10 25 15 0 9 33 11 40 2z m-574 -46 c3 -19 10 -35 14 -35 5 0 10
-12 12 -27 l4 -28 13 30 c7 16 15 32 19 35 4 3 13 17 19 33 11 23 18 27 53 27
38 0 41 -2 35 -22 -4 -13 -13 -27 -19 -33 -13 -10 -34 -46 -62 -105 -9 -19
-19 -37 -23 -40 -4 -3 -16 -21 -27 -40 -10 -19 -26 -39 -34 -44 -22 -14 -90
-19 -90 -7 0 6 4 11 10 11 5 0 17 17 27 38 9 20 22 40 27 44 8 5 7 8 0 8 -6 0
-17 28 -25 63 -7 34 -19 73 -26 87 -19 37 -17 40 27 40 37 0 39 -2 46 -35z"/>
<path d="M1217 463 c-2 -5 -5 -26 -6 -47 l-3 -39 42 6 c47 6 45 5 54 33 9 29
-17 54 -54 54 -16 0 -31 -3 -33 -7z"/>
<path d="M2016 439 c-10 -53 -8 -59 23 -59 39 0 61 9 61 26 0 8 5 14 10 14 6
0 10 5 10 11 0 5 -4 8 -9 5 -5 -3 -11 3 -14 14 -4 15 -14 20 -40 20 -31 0 -35
-3 -41 -31z"/>
<path d="M1460 360 c-48 -48 -5 -107 59 -81 46 20 51 83 8 95 -35 9 -46 7 -67
-14z"/>
<path d="M2271 371 c-8 -5 -16 -18 -17 -28 -2 -9 -8 -19 -13 -21 -6 -2 0 -15
13 -29 19 -21 29 -24 52 -19 16 4 35 12 41 18 16 13 17 60 1 76 -14 14 -57 16
-77 3z"/>
</g>
</svg>
