<svg width="43" height="45" viewBox="0 0 43 45" fill="none" xmlns="http://www.w3.org/2000/svg">
<path fill-rule="evenodd" clip-rule="evenodd" d="M4.42994 0.0999756C3.54852 0.0999756 2.83398 0.814509 2.83398 1.69593V43.304C2.83398 44.1854 3.54852 44.9 4.42994 44.9H38.5714C39.4528 44.9 40.1673 44.1854 40.1673 43.304V1.69593C40.1673 1.67056 40.1667 1.64533 40.1656 1.62026V7.56664L32.6989 0.0999756H4.42994Z" fill="#E4E7EC"/>
<path fill-rule="evenodd" clip-rule="evenodd" d="M32.6992 0.0999756V7.56664H40.1659L32.6992 0.0999756Z" fill="#98A2B3"/>
<rect x="0.966797" y="18.7666" width="41.0667" height="18.6667" rx="1.59595" fill="#6453EE"/>
<path d="M9.79102 32.7427V23.4572H13.2731C13.9864 23.4572 14.5849 23.5901 15.0685 23.8561C15.5552 24.1221 15.9224 24.4879 16.1703 24.9534C16.4212 25.4158 16.5466 25.9418 16.5466 26.5312C16.5466 27.1266 16.4212 27.6556 16.1703 28.1181C15.9194 28.5805 15.5491 28.9448 15.0595 29.2107C14.5698 29.4737 13.9668 29.6052 13.2504 29.6052H10.9426V28.2223H13.0237C13.4409 28.2223 13.7824 28.1498 14.0484 28.0047C14.3144 27.8596 14.5109 27.6601 14.6378 27.4062C14.7678 27.1523 14.8328 26.8606 14.8328 26.5312C14.8328 26.2017 14.7678 25.9115 14.6378 25.6607C14.5109 25.4098 14.3129 25.2148 14.0439 25.0758C13.7779 24.9337 13.4348 24.8627 13.0147 24.8627H11.4731V32.7427H9.79102Z" fill="white"/>
<path d="M21.1542 32.7427H18.0077V23.4572H21.2177C22.1396 23.4572 22.9316 23.643 23.5935 24.0148C24.2585 24.3836 24.7693 24.9141 25.126 25.6062C25.4827 26.2984 25.661 27.1266 25.661 28.0909C25.661 29.0581 25.4812 29.8893 25.1215 30.5845C24.7648 31.2797 24.2494 31.8132 23.5754 32.185C22.9044 32.5568 22.0973 32.7427 21.1542 32.7427ZM19.6898 31.2873H21.0726C21.7195 31.2873 22.259 31.1694 22.6913 30.9337C23.1235 30.6949 23.4484 30.3397 23.6661 29.8682C23.8837 29.3936 23.9925 28.8012 23.9925 28.0909C23.9925 27.3805 23.8837 26.7911 23.6661 26.3226C23.4484 25.8511 23.1265 25.4989 22.7003 25.2662C22.2772 25.0304 21.7512 24.9126 21.1225 24.9126H19.6898V31.2873Z" fill="white"/>
<path d="M27.2592 32.7427V23.4572H33.2078V24.8672H28.9413V27.3881H32.7997V28.7982H28.9413V32.7427H27.2592Z" fill="white"/>
</svg>
