<?xml version="1.0" standalone="no"?>
<!DOCTYPE svg PUBLIC "-//W3C//DTD SVG 20010904//EN"
 "http://www.w3.org/TR/2001/REC-SVG-20010904/DTD/svg10.dtd">
<svg version="1.0" xmlns="http://www.w3.org/2000/svg"
 width="300.000000pt" height="65.000000pt" viewBox="0 0 300.000000 65.000000"
 preserveAspectRatio="xMidYMid meet">
<metadata>
Created by potrace 1.10, written by Peter Selinger 2001-2011
</metadata>
<g transform="translate(0.000000,65.000000) scale(0.100000,-0.100000)"
fill="#fff" stroke="none">
<path d="M1430 618 c-11 -18 -20 -45 -20 -60 0 -22 -5 -28 -22 -29 -146 -6
-217 -6 -225 0 -6 3 -18 20 -26 38 -20 37 -44 47 -97 38 -29 -5 -48 -17 -72
-45 -33 -39 -33 -39 -81 -30 -52 10 -118 0 -167 -25 -69 -35 -97 -120 -61
-181 25 -42 26 -57 6 -74 -10 -8 -15 -31 -15 -65 0 -45 4 -57 26 -74 51 -40
205 -39 266 3 l33 22 39 -25 c33 -21 50 -26 100 -24 34 1 97 1 141 2 113 0
123 12 127 145 2 69 7 101 16 104 9 3 12 -21 12 -96 0 -85 3 -103 21 -126 18
-22 28 -26 74 -26 l54 0 7 -45 6 -45 83 0 c78 0 82 1 93 25 7 14 12 32 12 40
0 10 11 15 33 15 55 0 99 18 139 57 l38 37 38 -37 c28 -28 52 -40 93 -49 77
-16 161 -3 200 30 29 23 31 30 27 74 -3 31 0 54 8 66 7 9 13 40 13 67 1 187
-213 276 -351 147 l-28 -26 -27 26 c-56 52 -81 58 -221 55 l-130 -3 10 28 c7
19 6 39 -2 63 l-12 35 -69 0 c-67 0 -70 -1 -89 -32z m142 -6 c-7 -2 -12 -18
-12 -35 0 -30 -3 -33 -55 -48 l-55 -16 0 47 0 47 53 10 c48 8 98 5 69 -5z
m-462 -78 c0 -21 -4 -33 -10 -29 -5 3 -10 1 -10 -4 0 -7 24 -11 58 -12 31 0
51 -3 45 -6 -8 -3 -13 -23 -13 -49 l0 -44 -45 0 c-25 0 -45 -5 -45 -11 0 -5 5
-7 10 -4 6 4 10 -25 10 -79 l0 -86 38 0 c36 0 37 -1 37 -40 1 -35 -2 -40 -27
-45 -44 -10 -109 5 -135 31 -23 23 -24 30 -24 174 -1 82 -5 165 -9 185 -8 34
-7 35 24 35 24 0 27 3 16 10 -11 7 -2 10 33 10 l47 0 0 -36z m-174 -58 c8 -8
14 -33 14 -56 0 -34 -3 -41 -16 -36 -9 3 -30 6 -47 6 -24 0 -28 3 -17 10 11 7
7 10 -18 10 -41 0 -68 -22 -48 -39 7 -6 27 -14 44 -17 18 -4 32 -10 32 -15 0
-5 12 -9 26 -9 14 0 23 -4 19 -10 -3 -5 -1 -10 6 -10 21 0 38 -34 39 -77 0
-24 -4 -43 -10 -43 -5 0 -10 -9 -10 -20 0 -13 -7 -20 -20 -20 -11 0 -20 -4
-20 -9 0 -13 -93 -21 -165 -14 l-65 6 0 58 c0 33 4 59 10 59 6 0 10 -3 10 -7
0 -16 56 -33 107 -33 42 0 53 3 53 16 0 19 -24 44 -43 44 -20 0 -108 40 -124
56 -7 7 -13 34 -13 61 0 35 3 44 10 33 8 -12 10 -9 10 11 0 28 15 39 53 39 18
0 19 2 7 10 -10 7 13 10 73 10 63 0 92 -4 103 -14z m389 5 c-10 -17 13 -22 28
-6 9 8 29 15 45 15 29 0 30 -1 30 -49 l0 -50 -42 -3 -41 -3 0 -128 0 -127 -62
0 -63 0 0 180 0 180 56 0 c31 0 53 -4 49 -9z m235 -170 l0 -179 -55 -4 -55 -3
0 183 0 182 55 0 55 0 0 -179z m140 169 c0 -5 9 -10 20 -10 11 0 20 5 20 10 0
6 27 10 60 10 33 0 60 -4 60 -10 0 -5 7 -10 16 -10 19 0 37 -17 58 -57 23 -45
22 -174 -1 -211 -40 -62 -62 -75 -123 -76 -35 0 -64 5 -74 13 -14 12 -16 8
-16 -48 l0 -61 -35 0 c-19 0 -35 -4 -35 -10 0 -5 -9 -10 -20 -10 -19 0 -20 7
-20 240 l0 240 45 0 c25 0 45 -4 45 -10z m523 0 c7 -6 24 -19 40 -31 15 -11
27 -29 27 -40 0 -10 5 -19 10 -19 6 0 10 -27 10 -60 l0 -60 -110 0 c-60 0
-110 -2 -110 -5 0 -2 5 -16 12 -30 10 -23 16 -25 84 -25 40 0 76 4 79 10 14
23 25 7 25 -39 l0 -48 -68 -6 c-113 -9 -151 0 -194 47 -30 32 -38 49 -38 79 0
23 -4 36 -10 32 -6 -4 -10 5 -10 19 0 14 5 26 10 26 6 0 10 16 10 36 0 19 6
41 13 48 6 8 19 23 27 35 8 11 22 21 32 21 10 0 18 5 18 10 0 13 127 13 143 0z
m-1043 -181 c0 -28 -4 -39 -15 -39 -11 0 -15 11 -15 38 0 21 3 42 6 45 14 13
24 -6 24 -44z"/>
<path d="M1755 400 c3 -5 -3 -10 -14 -10 -20 0 -21 -6 -21 -90 l0 -90 41 0
c22 0 46 6 53 13 20 19 29 73 21 123 -5 35 -10 44 -26 44 -10 0 -19 5 -19 10
0 6 -9 10 -21 10 -11 0 -17 -4 -14 -10z m39 -66 c10 -26 7 -51 -8 -63 -11 -10
-16 -8 -21 9 -14 43 14 94 29 54z"/>
<path d="M2115 400 c3 -5 0 -10 -8 -10 -8 0 -17 -9 -20 -20 -5 -18 0 -20 59
-20 56 0 63 2 57 18 -4 9 -12 23 -19 30 -15 14 -78 17 -69 2z"/>
</g>
</svg>
