<?xml version="1.0" standalone="no"?>
<!DOCTYPE svg PUBLIC "-//W3C//DTD SVG 20010904//EN"
 "http://www.w3.org/TR/2001/REC-SVG-20010904/DTD/svg10.dtd">
<svg version="1.0" xmlns="http://www.w3.org/2000/svg"
 width="248.000000pt" height="58.000000pt" viewBox="0 0 248.000000 58.000000"
 preserveAspectRatio="xMidYMid meet">
<metadata>
Created by potrace 1.10, written by Peter Selinger 2001-2011
</metadata>
<g transform="translate(0.000000,58.000000) scale(0.100000,-0.100000)"
fill="#fff" stroke="none">
<path d="M1335 558 c-22 -11 -52 -31 -67 -46 -26 -24 -28 -24 -34 -6 -4 10
-16 29 -27 42 -24 26 -90 30 -123 7 -19 -12 -24 -12 -40 0 -11 8 -41 15 -67
15 -61 0 -101 -35 -112 -97 -3 -23 -12 -49 -19 -59 -11 -15 -14 -9 -25 44 -17
88 -48 112 -145 112 -144 0 -173 -30 -97 -100 55 -50 72 -96 106 -280 28 -148
52 -180 137 -180 61 0 91 26 117 105 36 108 76 214 84 221 10 11 8 -21 -8
-111 -21 -115 -19 -171 5 -195 27 -27 92 -27 131 1 26 18 32 19 47 7 54 -45
158 -51 238 -14 50 23 51 23 75 5 15 -12 41 -19 70 -19 37 0 50 5 74 30 39 41
83 41 123 0 40 -40 101 -42 137 -5 28 27 29 35 15 85 -6 19 -20 96 -31 170
-36 237 -57 280 -136 280 -91 0 -118 -34 -179 -220 -14 -44 -27 -80 -29 -80
-5 0 -115 110 -115 116 0 2 17 4 38 4 54 0 76 27 77 93 0 47 -3 53 -34 74 -44
29 -128 30 -186 1z m-568 -42 c9 -14 10 -20 25 -138 6 -53 15 -95 19 -92 4 2
9 -17 11 -43 l3 -48 12 40 c7 22 14 53 17 69 3 16 9 32 14 35 4 3 14 31 20 62
7 30 17 72 23 92 l10 37 61 0 c50 0 59 -3 54 -15 -3 -9 -13 -40 -22 -70 -8
-30 -19 -55 -24 -55 -4 0 -10 -12 -13 -27 -8 -45 -40 -148 -48 -153 -3 -3 -14
-32 -23 -65 -10 -33 -19 -68 -22 -77 -4 -15 -17 -18 -65 -18 -57 0 -59 1 -59
26 0 14 -4 23 -8 20 -5 -3 -19 55 -32 129 -13 74 -27 130 -31 124 -3 -6 -10
19 -14 55 -7 71 -19 86 -66 86 -5 0 -7 5 -4 10 3 6 -5 10 -19 10 -14 0 -28 5
-31 10 -5 8 27 10 99 9 67 -1 109 -6 113 -13z m429 -18 c-3 -17 -9 -70 -13
-117 -4 -55 -9 -78 -14 -66 -6 16 -8 12 -8 -15 -1 -19 -6 -83 -13 -142 l-11
-108 -55 0 -55 0 7 37 c3 21 6 56 7 78 0 27 3 34 8 22 4 -10 12 41 20 120 7
76 15 157 18 181 l6 42 55 0 55 0 -7 -32z m322 26 c12 -4 22 -14 22 -23 0 -14
-2 -14 -10 -1 -7 11 -10 3 -11 -30 -1 -25 -1 -48 0 -52 0 -5 -3 -8 -9 -8 -5 0
-10 4 -10 9 0 13 -82 25 -109 16 -15 -4 -21 -15 -21 -33 0 -26 29 -62 50 -62
5 0 25 -15 45 -33 83 -76 41 -232 -68 -252 -20 -4 -37 -11 -37 -16 0 -5 -15
-8 -32 -8 l-33 1 30 8 c29 7 28 8 -11 9 -23 0 -56 4 -73 7 l-32 7 7 56 c7 64
10 69 26 53 7 -7 23 -12 37 -12 21 0 23 -2 11 -10 -11 -7 0 -10 38 -10 29 0
51 4 48 9 -3 5 1 11 9 15 8 3 15 14 15 24 0 21 -35 62 -53 62 -7 0 -20 8 -28
18 -9 9 -25 22 -35 28 -16 9 -19 23 -19 87 0 70 2 77 30 102 16 16 41 31 55
36 31 9 137 11 168 3z m300 -42 c2 -23 7 -40 11 -37 5 2 19 -74 32 -169 13
-96 27 -173 30 -170 4 2 9 -10 11 -26 l5 -30 -52 0 -52 0 -7 40 -6 40 -65 0
c-52 0 -65 -3 -65 -16 0 -8 -4 -13 -9 -9 -5 3 -11 -7 -13 -22 -3 -27 -6 -28
-60 -31 -55 -3 -58 -2 -58 20 0 15 3 19 8 11 5 -8 17 23 32 77 13 49 27 87 31
85 3 -3 10 10 14 28 4 17 9 37 11 42 2 6 8 28 13 49 5 21 14 42 19 45 6 3 15
26 22 51 7 25 16 50 21 56 5 6 35 11 67 10 l57 -1 3 -43z m-514 -253 c57 -38
42 -51 -35 -28 -29 9 -42 9 -53 0 -21 -17 -25 -2 -15 52 12 68 18 73 44 35 13
-19 39 -45 59 -59z m454 -116 c-15 -2 -42 -2 -60 0 -18 2 -6 4 27 4 33 0 48
-2 33 -4z"/>
<path d="M1738 395 c-3 -5 -9 -31 -13 -57 -4 -26 -11 -46 -15 -43 -4 3 -10 -5
-13 -18 -2 -12 -8 -30 -12 -39 -6 -16 -1 -18 44 -18 45 0 68 12 41 22 -5 2
-13 39 -17 83 -5 44 -11 76 -15 70z"/>
</g>
</svg>
